<?xml version="1.0" standalone="no"?>
<!DOCTYPE svg PUBLIC "-//W3C//DTD SVG 20010904//EN"
 "http://www.w3.org/TR/2001/REC-SVG-20010904/DTD/svg10.dtd">
<svg version="1.0" xmlns="http://www.w3.org/2000/svg"
 width="1080.000000pt" height="902.000000pt" viewBox="0 0 1080.000000 902.000000"
 preserveAspectRatio="xMidYMid meet">

<g transform="translate(0.000000,902.000000) scale(0.100000,-0.100000)"
fill="#000000" stroke="none">
<path d="M322 8938 c7 -75 21 -200 48 -438 41 -352 79 -699 90 -818 5 -51 14
-127 19 -170 6 -42 15 -122 21 -177 6 -55 16 -134 21 -175 14 -112 50 -444 59
-535 7 -74 22 -200 51 -429 6 -49 17 -148 25 -220 8 -72 20 -174 26 -226 6
-52 12 -114 12 -137 1 -24 4 -43 7 -43 8 0 20 -158 20 -255 0 -48 3 -62 8 -45
5 17 10 -17 15 -100 4 -69 11 -145 16 -170 5 -25 14 -92 20 -150 15 -168 30
-306 45 -440 8 -69 16 -156 19 -195 3 -38 16 -176 30 -305 14 -129 28 -280 32
-335 3 -55 10 -104 14 -110 4 -5 10 -55 13 -109 4 -54 11 -135 17 -180 21
-173 40 -356 50 -461 5 -60 16 -159 24 -220 8 -60 12 -113 8 -116 -6 -6 -660
-19 -944 -19 -52 0 -88 -4 -88 -10 0 -7 181 -10 524 -10 l524 0 6 -26 c4 -14
14 -37 22 -50 l16 -23 451 5 c249 4 468 7 487 8 l35 1 6 -97 c4 -53 9 -100 13
-106 3 -5 10 -41 16 -78 11 -70 33 -186 45 -237 5 -17 3 -27 -4 -27 -6 0 -11
13 -11 29 0 17 -4 32 -9 35 -5 4 -12 24 -16 46 -6 34 -10 39 -28 36 -12 -3
-64 -8 -114 -11 -70 -5 -93 -4 -93 6 0 8 -5 7 -17 -3 -25 -22 -73 -29 -198
-27 -60 0 -134 1 -162 1 -33 0 -53 4 -53 11 0 8 -3 8 -12 -1 -14 -14 -118 -16
-118 -3 0 6 5 13 11 16 6 5 4 12 -8 20 -16 12 -15 14 17 19 19 4 58 6 85 4 28
-1 156 2 285 7 129 5 269 9 312 9 81 1 98 7 80 29 -10 11 -137 13 -724 11
-392 -2 -860 -3 -1040 -4 l-328 0 0 -165 0 -165 38 0 c20 0 44 -5 52 -10 11
-7 0 -10 -37 -10 l-53 0 0 -355 c0 -319 2 -355 16 -355 10 0 14 -6 11 -15 -4
-8 -2 -17 3 -20 17 -10 11 -25 -10 -25 -17 0 -20 -7 -20 -41 l0 -41 66 7 c45
4 64 3 59 -5 -3 -5 -33 -10 -66 -10 l-59 0 0 -90 c0 -94 0 -94 48 -90 15 1 22
-4 23 -17 0 -16 1 -16 9 2 7 17 9 15 9 -12 1 -19 6 -33 14 -34 17 -1 -24 -17
-45 -18 -10 -1 -18 4 -18 9 0 6 10 10 22 10 31 0 19 6 -25 13 l-37 6 0 -222 0
-222 36 -11 c24 -8 48 -8 72 -2 43 11 86 15 237 22 78 4 122 12 150 25 23 11
47 20 55 21 30 5 51 0 45 -10 -4 -6 -14 -8 -23 -6 -10 3 -24 1 -32 -4 -31 -20
14 -30 141 -30 69 0 154 -3 188 -6 53 -6 59 -8 43 -20 -9 -7 -15 -14 -12 -14
24 -3 180 -13 200 -13 14 1 127 3 252 6 126 3 232 8 236 11 18 11 191 9 205
-2 8 -7 16 -9 19 -7 3 3 16 8 29 11 107 25 164 23 156 -6 -4 -15 8 -18 101
-24 58 -3 128 -6 157 -6 l52 0 16 75 c19 84 22 149 8 140 -6 -3 -13 -27 -16
-53 -10 -71 -15 -82 -36 -82 -19 0 -19 6 -14 123 4 67 8 138 10 157 8 58 47
160 67 171 22 12 58 -4 58 -26 0 -17 58 -18 79 -1 12 9 13 8 7 -3 -6 -8 0 -7
18 4 14 10 27 25 27 34 1 9 2 23 3 33 1 9 4 19 8 23 3 4 4 31 1 60 -7 71 2
109 25 99 9 -4 33 -6 53 -5 32 1 38 -2 50 -31 7 -18 17 -36 23 -40 6 -4 5 -12
-3 -22 -11 -13 -11 -22 3 -50 11 -23 13 -42 8 -58 -6 -16 -3 -34 9 -58 10 -19
18 -29 19 -21 0 8 2 12 5 10 2 -3 1 -20 -4 -37 -7 -24 -5 -40 7 -64 9 -19 19
-70 22 -123 5 -84 2 -127 -15 -217 l-8 -38 312 1 c171 0 311 4 311 9 0 5 -5
21 -11 37 -6 15 -15 57 -20 93 -5 36 -11 75 -13 88 -3 12 1 41 9 63 8 22 17
81 21 132 4 51 13 101 20 112 8 11 14 34 14 51 0 17 7 37 15 44 8 7 15 22 15
34 0 12 9 46 19 76 14 40 27 59 47 69 23 12 29 12 38 -1 6 -8 16 -13 23 -11
15 5 26 -14 13 -22 -19 -12 -10 -25 16 -25 20 0 24 -3 16 -12 -13 -17 -4 -74
15 -90 20 -16 36 8 22 34 -6 11 -6 18 0 18 5 0 12 -11 15 -25 4 -14 22 -42 40
-63 65 -71 125 -228 145 -372 9 -71 6 -89 -20 -90 -9 0 -37 73 -44 118 -4 23
-11 42 -16 42 -23 0 -12 -73 22 -143 32 -69 38 -124 13 -134 -20 -8 -34 7 -44
48 -5 19 -15 52 -24 74 -11 31 -16 36 -21 22 -9 -21 -3 -54 22 -124 l18 -53
48 0 c26 0 47 3 47 8 0 4 217 6 482 4 356 -2 495 0 527 9 36 10 41 14 25 20
-18 7 -18 8 1 7 11 0 31 -4 45 -8 l25 -8 -25 -1 c-20 -1 -22 -3 -10 -11 9 -6
141 -10 327 -9 351 0 324 -6 341 76 l8 38 62 1 c72 2 93 8 88 26 -3 7 -7 25
-10 41 -9 39 -41 37 -33 -2 5 -24 2 -30 -15 -34 -21 -6 -54 21 -41 33 3 3 8
-1 10 -8 4 -10 8 -10 19 -1 11 9 11 15 0 38 -7 14 -11 31 -9 37 5 16 -38 26
-54 12 -7 -6 -13 -17 -13 -25 0 -8 -5 -13 -12 -11 -7 3 -12 18 -13 34 0 25 -4
30 -33 34 -35 5 -40 24 -7 27 11 0 26 1 33 2 18 1 15 28 -5 39 -14 9 -14 10 5
16 12 4 22 14 22 22 0 17 -5 18 -30 2 -16 -10 -22 -10 -28 -1 -4 6 -31 15 -59
19 -66 8 -61 19 8 22 29 1 58 7 63 12 7 7 -25 10 -94 11 -144 1 -188 5 -204
18 -10 9 -15 8 -20 -4 -4 -11 -13 -14 -25 -10 -11 3 -22 1 -26 -5 -4 -6 -35
-10 -73 -10 -110 2 -256 -5 -269 -13 -6 -4 -30 -3 -52 2 -23 5 -41 6 -41 2 0
-5 -64 -8 -142 -7 -146 1 -207 -5 -267 -23 -38 -12 -51 -7 -33 11 16 16 15 28
-3 28 -8 0 -15 4 -15 9 0 5 -10 11 -22 15 -17 4 -20 8 -11 17 9 9 18 8 37 -5
27 -17 46 -21 46 -8 0 4 -14 13 -31 21 -37 16 -34 23 6 13 16 -5 48 -4 71 1
l42 10 -21 18 c-17 14 -19 20 -10 30 15 15 43 5 43 -15 0 -8 12 -28 26 -43
l27 -28 -5 30 c-3 17 -7 37 -9 45 -6 21 148 34 172 14 8 -8 27 -14 42 -14 14
0 29 -4 32 -10 3 -5 25 -7 48 -4 23 3 54 6 70 5 74 -3 100 -3 208 -2 63 1 127
-3 142 -8 17 -7 28 -7 32 -1 4 6 19 10 34 10 18 0 35 8 45 22 l17 23 -7 -24
c-6 -21 -4 -23 17 -17 13 4 34 10 47 13 12 3 22 9 22 13 0 14 39 18 44 5 6
-18 46 -7 46 12 0 8 9 17 21 20 12 4 18 11 15 20 -5 11 2 14 27 11 31 -3 32
-5 41 -60 9 -57 19 -71 29 -44 4 10 44 15 158 20 140 7 215 10 542 19 106 3
109 4 132 33 14 16 24 35 25 41 0 12 72 18 145 13 11 -1 121 -3 245 -6 387 -7
413 -8 418 -21 5 -17 43 -17 40 0 -3 14 85 11 90 -4 2 -5 15 -9 28 -9 14 0 34
-5 46 -11 20 -11 72 -4 64 9 -4 6 27 8 77 4 11 -1 15 -7 11 -13 -5 -9 9 -10
55 -5 53 6 61 5 61 -9 0 -14 -9 -16 -47 -14 -27 1 -61 -1 -76 -5 -26 -8 -26
-9 -10 -22 15 -11 15 -13 3 -14 -12 0 -11 -3 3 -11 9 -5 17 -17 17 -25 0 -13
-11 -15 -52 -14 -68 3 -78 2 -78 -9 0 -5 51 -11 113 -15 124 -8 177 -15 177
-25 0 -3 -21 -15 -47 -26 -26 -11 -57 -29 -69 -41 -22 -20 -22 -20 -3 -32 34
-21 21 -32 -38 -32 -41 0 -54 -3 -43 -10 8 -5 32 -10 52 -10 20 0 40 -5 43
-10 3 -6 17 -10 30 -10 25 0 39 -22 23 -38 -5 -5 -10 -46 -11 -90 -2 -59 -5
-78 -14 -75 -9 4 -13 -5 -13 -25 0 -39 11 -47 85 -59 29 -4 30 -3 53 65 23 74
28 112 13 112 -5 0 -14 -23 -20 -51 -11 -48 -29 -79 -48 -79 -14 0 -3 139 17
220 10 41 28 96 40 122 11 26 21 50 21 52 1 2 17 22 37 44 33 36 39 39 53 26
15 -13 17 -6 21 79 5 99 24 146 60 147 9 0 30 8 47 18 26 14 34 15 52 4 12 -8
25 -10 30 -5 17 17 13 70 -9 100 -12 17 -22 36 -22 42 0 6 -4 11 -9 11 -5 0
-11 17 -14 38 -2 20 -13 71 -25 113 -12 44 -19 98 -18 132 2 31 0 77 -4 102
-4 27 -3 48 4 55 8 8 7 13 -2 19 -13 8 -13 109 0 117 5 3 1 15 -7 27 -20 28
-20 61 0 53 8 -3 15 -1 15 4 0 6 -11 10 -25 10 -29 0 -32 12 -9 31 13 10 19
10 36 0 24 -15 24 -16 31 35 8 48 2 57 -24 41 -10 -6 -22 -8 -26 -4 -4 5 -2
11 4 15 18 11 4 62 -18 62 -13 0 -19 7 -19 23 0 12 -7 35 -15 51 -8 15 -15 33
-15 39 0 6 -8 19 -17 29 -19 22 -19 88 0 120 10 16 9 22 -5 32 -10 7 -18 18
-18 25 0 6 -7 11 -15 11 -14 0 -19 11 -16 38 1 6 -6 12 -15 12 -11 0 -14 5
-10 16 6 16 -9 54 -28 66 -8 5 -7 8 2 8 6 0 12 12 12 27 0 25 1 26 13 8 14
-18 43 -13 32 6 -4 5 5 9 20 9 14 0 28 7 31 15 3 8 23 19 43 25 20 5 47 19 59
30 12 12 22 17 22 13 0 -4 4 -2 9 6 8 12 14 13 35 3 27 -12 36 -47 14 -54 -10
-4 -10 -17 0 -65 8 -41 9 -69 3 -86 -8 -21 -7 -26 10 -30 19 -5 28 -47 9 -47
-5 0 -10 -20 -10 -45 0 -31 5 -47 18 -54 16 -10 16 -12 0 -25 -22 -16 -23 -36
-2 -36 9 0 14 -7 12 -18 -2 -11 3 -26 10 -34 16 -19 19 -221 3 -226 -7 -2 -11
-39 -11 -97 0 -52 -4 -97 -10 -100 -5 -3 -8 -20 -6 -38 2 -18 4 -40 5 -49 0
-10 7 -18 15 -18 11 0 14 -16 14 -62 0 -74 18 -223 34 -282 6 -23 13 -75 15
-116 3 -41 9 -81 15 -88 6 -6 11 -30 12 -51 0 -22 4 -37 8 -35 5 3 8 0 8 -5 0
-6 -5 -11 -11 -11 -7 0 -9 -16 -5 -47 4 -27 6 -163 5 -303 -1 -194 -4 -263
-15 -289 -22 -52 -19 -61 22 -61 31 0 35 3 29 17 -9 23 -9 28 9 88 27 95 32
103 60 98 14 -3 26 -12 26 -20 0 -8 -4 -12 -9 -8 -5 3 -12 1 -16 -5 -3 -5 0
-10 7 -10 8 0 19 -14 25 -31 7 -17 21 -33 32 -36 23 -6 29 -33 9 -33 -9 -1 -8
-4 2 -13 8 -7 15 -19 15 -27 0 -9 11 -16 28 -18 54 -6 56 -1 36 83 -15 66 -16
89 -7 164 5 47 7 109 3 136 -3 28 -8 61 -10 75 -10 73 -15 271 -7 266 5 -3 12
-19 16 -36 8 -41 26 -29 26 16 0 19 6 47 14 62 7 15 16 45 20 67 17 101 28
145 36 140 4 -3 13 2 19 9 10 11 8 17 -6 25 -16 9 -16 10 -2 11 19 0 29 20 29
56 0 14 6 27 14 30 12 5 31 57 27 77 -1 4 6 10 14 13 22 9 45 57 45 93 0 19 7
35 18 42 15 10 18 21 14 61 -3 37 0 53 12 67 16 18 16 20 1 29 -16 8 -15 11 6
26 19 13 21 18 10 25 -12 8 -12 12 2 26 10 9 17 22 18 28 8 89 6 159 -7 200
-9 27 -13 58 -10 70 3 14 -2 29 -16 44 -19 20 -20 26 -8 48 11 21 11 29 0 51
-11 20 -11 29 -2 44 6 10 7 20 2 22 -5 2 -10 21 -12 43 -2 33 0 40 15 37 25
-4 23 38 -3 45 -31 8 -34 32 -31 206 1 34 5 57 12 57 17 0 48 43 49 66 0 11
-7 29 -15 40 -22 29 -19 126 5 173 10 21 16 41 13 44 -3 4 6 11 21 16 32 13
37 51 6 51 -11 0 -23 7 -26 15 -4 8 -16 15 -29 15 -23 0 -53 26 -42 36 3 3 34
6 68 7 54 0 64 -3 80 -24 9 -13 19 -22 21 -19 13 17 64 147 72 184 6 26 5 28
-8 17 -16 -13 -36 -7 -36 10 0 6 4 7 10 4 5 -3 7 0 4 9 -3 8 -1 29 4 48 10 36
-10 108 -30 108 -5 0 -6 4 -3 10 3 5 15 10 26 10 25 0 36 27 21 51 -7 11 -8
20 -2 24 17 11 11 33 -11 40 -18 6 -20 12 -15 40 6 28 3 35 -14 40 -11 4 -18
11 -14 16 3 6 -2 17 -12 24 -11 8 -14 15 -7 15 6 0 19 -10 27 -21 12 -18 20
-20 53 -14 25 6 32 10 19 13 -10 2 -14 7 -9 11 6 3 13 16 17 29 6 18 4 22 -13
22 -11 0 -32 -5 -46 -12 -17 -8 -29 -8 -36 -1 -6 6 9 14 48 22 110 24 192 53
250 87 122 74 140 108 153 297 13 183 13 183 88 235 39 28 40 47 6 123 l-27
59 17 118 c22 161 21 316 -5 448 -11 59 -27 121 -36 138 -48 93 -63 166 -63
309 0 151 -11 194 -56 224 -27 18 -50 84 -58 172 -6 68 -23 112 -45 119 -10 3
-11 -1 -5 -19 5 -13 9 -43 9 -66 -1 -56 -54 -119 -171 -199 -88 -61 -269 -157
-352 -188 -82 -31 -227 -65 -304 -72 -67 -6 -82 -4 -118 15 -45 23 -54 26 -45
11 10 -15 -11 -12 -135 20 -257 66 -518 175 -665 277 -84 58 -94 80 -76 161 7
31 14 71 15 87 1 17 9 46 17 65 23 52 49 135 49 156 0 10 7 38 16 61 13 35 20
41 30 32 8 -6 14 -8 14 -3 1 5 9 0 18 -12 18 -21 58 -34 119 -37 17 -1 39 -10
50 -18 10 -9 27 -19 39 -23 11 -3 26 -17 33 -29 8 -16 29 -28 60 -36 44 -11
52 -10 85 8 20 12 52 21 71 21 19 0 35 5 35 10 0 6 11 10 24 10 19 0 22 4 18
25 -3 16 2 33 13 45 14 16 16 26 9 52 -6 18 -16 33 -24 33 -7 0 -18 16 -23 35
l-10 35 -9 -32 c-11 -41 -28 -43 -28 -4 0 31 -15 50 -23 29 -4 -10 -7 -10 -18
0 -12 11 -11 15 4 27 18 13 18 14 0 24 -17 10 -16 10 5 11 22 0 31 23 12 35
-6 3 -10 17 -10 30 0 13 -5 27 -11 31 -6 3 -17 21 -25 40 -8 18 -24 38 -35 45
-15 8 -19 8 -15 0 10 -15 -76 -15 -92 1 -8 8 -15 8 -24 1 -33 -26 -87 -22
-188 15 -8 3 -20 6 -27 7 -6 0 -23 11 -36 23 -17 16 -32 21 -51 18 -18 -3 -26
-1 -23 7 8 27 63 39 220 48 89 5 196 14 237 20 100 14 287 23 278 14 -13 -14
12 -45 37 -45 13 0 28 -6 32 -13 4 -8 17 -17 28 -21 15 -5 16 -9 6 -15 -10 -6
-5 -11 18 -16 25 -5 31 -11 26 -25 -5 -15 1 -20 29 -26 37 -6 43 -13 27 -29
-5 -6 -13 -27 -16 -48 -7 -33 -5 -39 13 -44 14 -3 19 -10 15 -21 -4 -10 -2
-13 5 -8 8 5 11 -8 11 -43 -1 -34 4 -59 17 -78 11 -16 21 -36 24 -46 3 -10 10
-18 15 -18 6 0 17 -7 25 -14 12 -11 25 -12 60 -4 24 6 55 7 67 4 13 -3 23 -1
23 5 0 8 15 9 45 4 36 -5 46 -3 51 10 13 33 84 9 84 -28 0 -22 83 -40 130 -28
22 5 40 6 40 2 0 -5 8 -6 19 -3 12 3 26 -5 41 -24 13 -16 25 -23 27 -17 7 22
41 3 51 -29 l11 -32 -7 35 c-4 19 -6 98 -6 175 1 111 7 167 29 270 15 72 33
166 39 210 6 44 15 86 19 92 4 7 5 28 1 48 -14 77 19 21 80 -134 107 -271 184
-364 356 -425 41 -15 89 -36 106 -47 53 -32 85 -25 156 35 35 30 74 69 87 86
23 31 23 33 6 70 -19 42 -12 130 10 130 13 0 43 136 32 147 -4 3 -7 -7 -7 -24
0 -32 -22 -59 -40 -48 -5 3 -10 13 -10 21 0 9 -11 14 -30 14 -20 0 -30 5 -30
15 0 8 -4 15 -10 15 -5 0 -7 -7 -4 -15 4 -8 2 -15 -4 -15 -19 0 -72 35 -72 48
0 6 -9 12 -20 12 -11 0 -30 11 -41 24 -12 14 -27 22 -35 19 -7 -3 -25 5 -40
16 -15 12 -36 21 -48 21 -11 0 -36 14 -55 31 -25 24 -35 29 -41 19 -6 -9 -9
-4 -12 16 -3 26 -7 29 -40 32 -26 2 -38 8 -38 18 0 11 -8 14 -27 12 -19 -2
-35 5 -54 25 -15 15 -35 27 -43 27 -9 0 -21 11 -26 25 -5 14 -16 25 -25 25 -8
0 -15 3 -15 8 0 4 19 8 43 9 26 2 47 9 55 20 17 24 12 68 -9 67 -11 -1 -15 9
-16 35 -1 19 -6 37 -12 39 -6 2 -11 8 -11 13 0 5 -20 30 -45 55 -42 42 -49 54
-46 80 1 6 -11 17 -26 25 -16 8 -32 19 -36 26 -4 7 -28 26 -52 43 -24 17 -59
44 -77 61 -32 30 -46 40 -180 140 -44 32 -68 57 -68 69 0 17 -7 20 -50 20 -43
0 -54 4 -83 34 -19 18 -43 39 -55 45 -15 8 -22 23 -24 54 -3 42 -3 42 -40 40
-36 -2 -50 9 -28 22 16 10 11 51 -8 68 -24 22 -38 21 -73 -4 -35 -24 -35 -25
68 -153 40 -50 73 -96 73 -102 0 -11 -59 -12 -78 0 -13 8 -26 -10 -17 -24 4
-6 32 -24 64 -40 32 -16 71 -39 87 -53 16 -13 45 -31 65 -40 19 -9 52 -32 73
-52 21 -20 57 -45 80 -56 40 -21 106 -82 106 -99 0 -22 -25 -20 -58 7 -20 16
-63 44 -94 63 -32 19 -58 38 -58 42 0 4 -7 8 -15 8 -8 0 -22 12 -32 26 -39 57
-51 64 -80 53 -27 -10 -77 -4 -97 12 -6 5 -26 21 -44 35 -23 19 -31 32 -27 45
7 21 -5 25 -23 7 -13 -13 -16 -3 -13 35 1 9 -3 17 -8 17 -6 0 -11 5 -11 10 0
6 7 10 16 10 9 0 14 6 12 13 -7 18 -39 15 -52 -5 -14 -23 25 -97 72 -139 17
-15 32 -31 32 -35 0 -3 9 -19 21 -36 24 -33 20 -45 -9 -29 -27 14 -53 14 -29
0 9 -5 17 -15 17 -22 0 -7 17 -23 38 -36 20 -14 46 -33 57 -42 11 -9 48 -27
83 -39 45 -17 61 -27 57 -37 -3 -8 -5 -17 -5 -19 0 -8 -39 -4 -45 6 -3 5 -21
17 -40 26 -19 9 -35 23 -35 31 0 12 -3 13 -13 4 -19 -15 -94 15 -100 41 -6 20
-28 21 -34 1 -4 -11 114 -133 128 -133 5 0 9 -3 9 -8 0 -4 -18 -7 -40 -7 -36
0 -45 5 -41 28 0 4 -3 7 -9 7 -5 0 -10 -7 -10 -16 0 -11 -5 -14 -16 -10 -9 3
-21 6 -27 6 -7 0 -6 4 3 10 11 7 7 10 -17 10 -20 0 -41 -8 -53 -20 -11 -11
-31 -20 -44 -20 -27 0 -78 -17 -86 -29 -3 -4 -26 -22 -53 -40 -26 -17 -47 -37
-47 -44 -1 -8 -5 -7 -13 3 -8 10 -26 14 -54 12 -25 -2 -43 1 -43 7 0 7 -8 7
-25 -1 -13 -6 -22 -15 -19 -19 5 -9 -53 -14 -106 -11 -13 1 -32 -6 -42 -15 -9
-8 -26 -13 -37 -10 -14 3 -18 1 -14 -10 5 -12 -4 -13 -54 -8 -41 5 -63 4 -67
-4 -4 -6 -17 -11 -30 -11 -13 0 -31 -9 -42 -21 -10 -11 -26 -18 -36 -16 -9 3
-19 0 -20 -5 -2 -6 -20 -12 -41 -13 -20 -1 -48 -10 -62 -19 -19 -12 -30 -14
-39 -7 -9 7 -16 7 -24 -1 -7 -7 -31 -14 -53 -15 -34 -2 -42 1 -46 17 -7 26
-23 26 -23 0 0 -35 -17 -21 -24 19 -3 22 -11 43 -17 47 -9 5 -10 -2 -5 -22 3
-16 9 -47 12 -69 9 -70 14 -85 32 -103 16 -16 22 -33 56 -149 15 -55 30 -68
23 -21 -5 31 -2 39 19 53 14 9 29 13 34 10 6 -3 10 -1 10 4 0 6 17 11 38 11
35 1 36 2 18 15 -21 16 -21 16 11 20 13 1 20 -2 17 -9 -3 -8 9 -11 38 -10 60
3 60 3 53 14 -3 5 -12 7 -20 4 -7 -3 -21 -2 -30 3 -11 7 8 14 67 27 46 10 99
22 118 28 19 5 94 16 165 24 72 8 155 19 185 25 69 13 495 13 535 0 l30 -9
-30 -2 -30 -2 35 -10 c53 -15 157 -24 240 -21 41 2 98 3 125 4 53 0 141 24
151 40 3 6 0 10 -7 8 -8 -1 -23 -1 -33 0 -35 2 -3 20 46 27 45 6 47 6 54 -22
4 -16 10 -33 14 -39 4 -5 8 -17 8 -25 0 -8 1 -35 3 -59 2 -32 -2 -47 -15 -56
-35 -26 -145 -35 -431 -34 -300 0 -463 -11 -710 -51 -165 -26 -272 -38 -465
-50 -91 -6 -182 -13 -202 -16 -36 -5 -36 -6 -31 -42 3 -20 21 -77 40 -125 50
-131 67 -224 59 -332 -8 -107 -53 -245 -103 -321 -26 -39 -38 -73 -49 -135
-11 -62 -23 -97 -48 -134 -52 -79 -56 -90 -83 -214 -21 -100 -25 -150 -30
-361 -2 -135 -7 -252 -10 -260 -3 -10 -10 -1 -19 25 -18 49 -20 247 -4 385 6
52 24 172 40 265 34 201 43 273 71 545 37 366 38 413 23 590 -7 91 -14 231
-14 311 0 139 -2 152 -34 250 -44 135 -52 181 -70 379 -27 295 -29 367 -12
464 18 98 21 150 6 106 -13 -40 -39 -161 -46 -213 l-7 -49 -13 31 c-8 20 -18
29 -27 25 -8 -3 -18 -1 -22 5 -3 6 -15 11 -25 11 -10 0 -20 5 -22 11 -2 7 -19
-7 -38 -31 -26 -33 -36 -57 -41 -99 -3 -31 -2 -61 3 -68 5 -6 6 -22 3 -35 -5
-20 -13 -25 -40 -26 -40 -2 -54 17 -51 66 1 18 -4 38 -11 44 -7 6 -13 7 -13 3
0 -4 -9 4 -20 18 -11 14 -20 29 -19 34 6 35 -2 45 -30 40 -25 -5 -33 -1 -56
29 -19 25 -30 32 -35 24 -6 -9 -9 -9 -13 1 -3 8 -6 -4 -6 -25 -1 -22 -4 -36
-8 -33 -3 4 -6 73 -6 155 1 104 -1 135 -7 107 -12 -53 -12 -287 0 -400 39
-387 57 -524 87 -640 42 -165 54 -386 32 -570 -15 -128 -13 -413 6 -600 21
-215 52 -487 70 -615 9 -58 20 -134 25 -170 5 -36 12 -101 14 -145 3 -44 12
-111 21 -150 23 -97 17 -390 -10 -487 l-19 -68 31 -67 c17 -38 46 -104 65
-147 18 -43 40 -82 48 -87 126 -64 263 -119 297 -119 18 0 23 6 23 26 0 14 -7
33 -16 42 -16 15 -15 17 11 24 16 4 31 5 35 3 7 -4 40 -113 70 -235 12 -47 25
-101 30 -120 6 -21 22 -45 40 -58 16 -13 30 -29 30 -36 0 -7 12 -40 26 -72 14
-33 53 -129 85 -215 32 -86 71 -183 87 -215 38 -76 66 -230 59 -327 -3 -40
-13 -117 -22 -172 -18 -105 -28 -545 -13 -545 4 0 8 -5 8 -11 0 -5 -3 -8 -7
-6 -5 3 -323 8 -708 11 -385 4 -821 9 -969 11 -149 3 -280 2 -293 -1 -27 -7
-31 -22 -5 -21 113 5 1983 -22 1993 -29 3 -2 9 -26 13 -53 4 -27 20 -93 36
-147 16 -54 27 -101 24 -106 -6 -10 -1299 2 -1954 18 -113 2 -211 4 -218 4
-11 0 -12 27 -7 143 4 79 4 154 0 166 l-7 22 -271 -6 c-318 -7 -1476 -10
-1482 -3 -3 2 2 42 10 89 8 46 15 113 15 149 l0 65 162 0 c90 0 483 1 873 3
l710 3 13 -77 c11 -67 11 -79 -3 -94 -21 -23 -19 -34 8 -45 12 -6 23 -20 25
-33 3 -23 35 -46 54 -40 6 2 4 11 -6 21 -16 16 -16 18 -1 23 8 4 23 0 33 -8 9
-9 28 -18 42 -21 33 -8 1380 -11 1387 -3 4 3 -2 6 -13 7 -93 3 -401 8 -819 14
-410 5 -502 9 -511 20 -10 14 -43 231 -64 430 -6 55 -15 127 -20 160 -5 33
-11 87 -14 120 -3 33 -10 94 -16 135 -6 41 -18 134 -26 205 -8 72 -19 162 -24
200 -6 39 -15 130 -20 204 -6 74 -12 137 -15 139 -5 6 -6 -71 -8 -840 l-2
-488 -350 2 c-320 1 -336 2 -185 10 91 4 181 7 200 7 19 0 31 3 28 6 -8 8
-1184 8 -1298 0 -47 -3 -93 -8 -103 -11 -27 -8 -45 13 -53 62 -6 41 -24 63
-24 29 0 -21 -16 -19 -25 3 -6 16 -7 16 -16 -1 -6 -9 -14 -15 -19 -12 -5 3
-11 1 -14 -3 -3 -5 -17 -7 -31 -5 -18 4 -26 13 -31 39 -7 37 13 94 33 94 7 0
13 9 13 20 0 11 6 19 13 18 7 -2 16 15 21 40 7 28 14 41 23 38 7 -3 13 -1 13
3 0 5 -7 12 -16 15 -10 4 -14 12 -10 22 7 18 -14 74 -26 74 -5 0 -8 9 -8 21 0
11 5 17 10 14 14 -9 13 8 -2 23 -9 9 -9 20 -1 45 13 38 32 126 31 147 0 28 62
303 82 361 10 31 21 72 23 90 2 19 13 50 25 69 29 46 45 94 72 210 13 52 26
100 30 105 7 10 30 78 100 300 59 185 86 365 58 393 -9 9 -8 28 1 81 11 60 10
75 -4 118 -13 38 -16 81 -14 213 2 109 -2 175 -9 193 -18 42 -15 72 14 128 37
73 19 146 -32 133 -17 -4 -24 -2 -24 9 0 8 6 17 14 20 26 10 -11 115 -66 186
-10 13 -18 38 -18 56 0 18 -5 47 -12 65 l-11 34 -19 -78 c-29 -125 -81 -197
-253 -353 -37 -35 -73 -63 -79 -63 -6 0 -3 7 7 14 9 7 17 21 17 30 0 10 4 14
10 11 12 -7 170 143 170 162 0 8 7 16 15 19 8 4 15 10 15 15 0 5 -7 9 -15 9
-8 0 -15 -4 -15 -9 0 -5 -9 -12 -19 -16 -11 -3 -18 -12 -15 -18 5 -14 -42 -64
-52 -54 -3 3 -20 -8 -36 -24 -34 -32 -44 -35 -51 -16 -3 7 -6 5 -6 -5 -1 -14
-10 -18 -36 -18 -38 0 -40 -2 -25 -31 10 -17 8 -18 -15 -9 -33 12 -35 12 -35
-1 0 -5 4 -7 10 -4 13 8 13 -6 0 -25 -9 -13 -12 -13 -21 2 -9 17 -12 16 -40
-4 -17 -13 -44 -22 -64 -22 -22 0 -35 -5 -35 -13 0 -7 -5 -13 -11 -13 -8 0 -8
-4 0 -14 8 -10 9 -16 2 -21 -16 -10 -85 6 -97 23 -12 17 -34 8 -34 -13 0 -12
-4 -12 -27 1 -40 20 -53 17 -53 -11 0 -25 -17 -33 -36 -17 -8 8 -83 32 -97 32
-4 0 -4 -7 -1 -15 4 -8 5 -15 3 -16 -2 0 -26 -3 -52 -6 -43 -5 -49 -3 -54 16
-4 17 -8 19 -19 10 -8 -7 -27 -9 -46 -5 -18 4 -42 7 -53 7 -23 0 -75 21 -75
31 0 3 -9 4 -20 1 -11 -3 -20 0 -20 6 0 6 9 11 20 11 11 0 20 7 20 15 0 8 -9
15 -20 15 -11 0 -20 5 -20 11 0 7 7 8 18 4 29 -11 37 -11 37 4 0 8 -13 19 -30
24 -36 12 -70 43 -57 51 5 3 28 4 50 2 45 -4 59 12 64 74 3 33 5 35 40 37 22
1 41 -4 48 -12 7 -8 18 -15 25 -15 7 0 24 -9 38 -20 19 -16 36 -19 73 -15 27
2 54 -1 61 -7 10 -8 18 -7 31 4 9 8 24 17 32 20 12 4 14 17 12 52 -2 25 -8 46
-12 46 -4 0 -11 11 -14 24 -6 26 -84 96 -105 96 -7 0 -19 7 -28 15 -8 8 -20
12 -26 8 -7 -4 -22 -6 -34 -4 -13 1 -23 -2 -23 -7 0 -5 -18 -14 -40 -21 -30
-9 -40 -17 -40 -33 0 -29 -47 -89 -65 -82 -14 6 -75 -25 -75 -37 0 -4 8 -9 18
-12 13 -3 11 -6 -11 -17 -16 -8 -26 -19 -23 -27 3 -7 -4 -23 -16 -35 -14 -14
-23 -18 -26 -10 -13 40 -61 54 -88 27 -9 -8 -24 -15 -35 -15 -10 0 -19 -4 -19
-10 0 -5 -7 -10 -16 -10 -8 0 -12 5 -9 10 3 6 -1 13 -10 16 -15 6 -55 -28 -55
-48 0 -4 -9 -8 -21 -8 -11 0 -27 -7 -36 -15 -8 -8 -19 -13 -24 -10 -16 10 -10
25 14 35 17 7 18 9 5 9 -21 1 -23 12 -6 30 11 11 8 12 -17 7 -16 -4 -32 -12
-33 -17 -2 -5 -8 -7 -13 -3 -5 3 -9 2 -8 -3 7 -40 -15 -44 -29 -5 -9 23 -11
24 -11 6 -1 -32 -38 -38 -45 -8 -4 13 -12 24 -19 24 -6 0 -25 7 -41 15 -20 11
-33 12 -40 5 -16 -16 -26 -12 -36 15 -5 14 -15 25 -21 25 -6 0 -9 -7 -5 -15 4
-12 2 -13 -13 -3 -13 8 -26 8 -49 0 -28 -10 -35 -8 -61 14 -16 13 -34 24 -40
24 -6 0 -11 4 -11 9 0 5 -14 14 -30 21 -17 7 -29 18 -28 24 1 6 -5 25 -15 41
-14 27 -16 28 -17 8 0 -12 5 -25 10 -28 6 -3 10 -13 10 -21 0 -27 -21 -3 -47
54 -23 50 -26 69 -25 162 0 67 -2 96 -8 80 -4 -14 -9 -41 -9 -60 -1 -19 -8
-55 -17 -79 -9 -28 -13 -59 -9 -82 5 -27 1 -47 -14 -75 -12 -21 -21 -57 -21
-80 0 -23 -7 -57 -15 -77 -10 -25 -12 -43 -5 -68 10 -34 2 -236 -9 -254 -4 -5
-8 -93 -9 -195 -1 -102 -7 -217 -13 -257 -11 -65 -10 -73 8 -92 14 -15 22 -48
32 -143 22 -214 57 -331 180 -595 33 -72 61 -138 61 -146 0 -8 35 -86 79 -173
43 -88 98 -215 121 -284 24 -69 46 -132 51 -141 4 -9 20 -70 35 -135 29 -128
29 -200 0 -284 -18 -54 -35 -187 -37 -291 l-2 -76 -226 -6 c-124 -3 -320 -6
-436 -7 -115 0 -229 -3 -252 -6 -34 -5 -43 -3 -52 14 -16 30 6 44 31 19 11
-11 68 -13 296 -9 155 3 282 9 282 13 0 10 -60 12 -321 10 l-175 -2 -17 143
c-10 79 -19 170 -22 203 -3 33 -12 105 -19 160 -8 55 -15 111 -15 125 1 14 -7
88 -16 165 -9 77 -20 185 -25 240 -5 55 -16 154 -24 220 -8 66 -20 176 -26
245 -6 69 -15 157 -21 195 -5 39 -18 158 -29 266 -31 303 -40 394 -56 534 -8
72 -21 198 -29 280 -8 83 -18 161 -22 175 -8 29 -9 40 -12 100 -2 40 -3 42
-12 21 -14 -36 -8 -189 8 -202 9 -8 12 -35 11 -88 -1 -65 -2 -68 -5 -21 -4 59
-23 109 -49 131 -16 13 -17 11 -10 -13 4 -17 2 -28 -4 -28 -5 0 -10 -5 -10
-11 0 -6 9 -8 21 -4 18 6 20 3 15 -27 -3 -18 -8 -59 -11 -91 -4 -32 -9 -57
-11 -54 -8 8 -25 121 -39 262 -7 77 -30 266 -50 420 -20 154 -40 316 -45 360
-14 126 -58 483 -69 560 -6 39 -13 90 -15 115 -10 88 -27 227 -41 340 -8 63
-24 194 -35 290 -12 96 -26 209 -31 250 -6 41 -17 134 -24 205 -19 171 -28
256 -59 520 -15 121 -33 279 -41 350 -9 72 -20 162 -25 200 -5 39 -12 94 -15
123 -11 85 -22 59 -13 -30z m8273 -1567 c10 -17 -12 -21 -25 -6 -10 12 -10 15
3 15 9 0 18 -4 22 -9z m635 -41 c8 -5 11 -12 8 -16 -10 -9 -38 3 -38 16 0 12
10 13 30 0z m-1910 -430 c0 -5 -4 -10 -10 -10 -5 0 -10 5 -10 10 0 6 5 10 10
10 6 0 10 -4 10 -10z m1610 -99 c44 -5 59 -10 48 -15 -10 -5 -18 -17 -18 -28
0 -10 -4 -17 -8 -14 -5 3 -36 1 -70 -4 -82 -11 -140 -3 -148 22 -4 14 -14 19
-37 17 -37 -2 -77 9 -77 22 0 10 213 10 310 0z m-460 -31 c0 -11 -4 -20 -9
-20 -5 0 -11 9 -14 20 -3 13 0 20 9 20 8 0 14 -9 14 -20z m-62 -87 c-3 -54
-11 -72 -31 -73 -5 0 -5 5 -2 10 3 6 1 10 -6 10 -8 0 -8 4 1 15 10 13 9 15 -9
15 -12 0 -20 4 -17 9 3 5 16 7 28 3 17 -4 20 -2 16 15 -5 18 7 53 18 53 2 0 3
-26 2 -57z m102 0 c0 -8 9 -26 20 -40 28 -36 10 -62 -42 -60 -21 1 -37 6 -35
12 2 5 10 10 18 10 16 1 16 54 0 64 -5 3 -7 19 -4 34 5 27 6 27 24 11 11 -9
19 -24 19 -31z m-200 -13 c0 -5 -7 -10 -15 -10 -8 0 -15 5 -15 10 0 6 7 10 15
10 8 0 15 -4 15 -10z m156 -35 c13 -13 13 -15 1 -15 -8 0 -17 7 -21 15 -3 8
-3 15 0 15 3 0 12 -7 20 -15z m-66 -70 c0 -16 -6 -25 -15 -25 -9 0 -15 -10
-16 -27 l-1 -28 -7 25 c-6 19 -3 27 11 34 10 5 18 17 18 28 0 10 2 18 5 18 3
0 5 -11 5 -25z m80 -29 c6 -8 10 -25 7 -38 -3 -20 -5 -19 -12 10 -6 27 -11 32
-29 27 -17 -5 -18 -4 -6 4 20 14 25 14 40 -3z m117 -18 c-3 -8 -6 -5 -6 6 -1
11 2 17 5 13 3 -3 4 -12 1 -19z m-1931 -86 c-12 -11 -14 4 -8 53 l7 50 3 -49
c2 -26 1 -51 -2 -54z m1974 43 c0 -26 -14 -31 -39 -16 -7 5 -10 14 -6 20 5 9
10 9 21 0 11 -9 14 -8 14 5 0 9 2 16 5 16 3 0 5 -11 5 -25z m-1912 -12 c2 -13
9 -23 17 -23 17 0 26 -26 19 -55 -4 -18 1 -28 25 -46 17 -12 31 -30 31 -39 0
-9 11 -27 24 -39 23 -22 46 -78 61 -148 8 -40 -11 -103 -31 -103 -18 0 -17
-18 1 -50 8 -14 14 -36 15 -50 0 -14 9 -40 20 -57 11 -18 15 -33 10 -33 -14 0
-12 -30 4 -61 15 -30 14 -95 -3 -112 -16 -16 -14 -34 5 -45 13 -7 14 -18 9
-55 -4 -26 -11 -44 -16 -41 -5 3 -9 -4 -9 -16 0 -11 -7 -23 -15 -26 -19 -8
-20 -30 -1 -37 7 -3 16 -20 19 -39 3 -18 9 -49 12 -68 12 -72 16 -81 27 -74 8
5 9 -8 4 -45 -4 -28 -4 -57 1 -63 12 -20 13 -181 1 -195 -8 -10 -8 -25 2 -56
10 -35 14 -39 20 -22 5 14 8 6 12 -31 5 -50 41 -110 60 -98 13 8 26 -38 24
-85 -1 -23 1 -44 6 -47 12 -8 9 -42 -4 -46 -8 -3 -12 -32 -13 -86 -1 -111 -20
-123 -45 -29 -13 44 -20 42 -54 -19 -18 -32 -24 -54 -20 -71 4 -16 2 -28 -7
-34 -12 -7 -12 -12 -1 -30 17 -27 4 -40 -28 -27 -25 9 -25 10 -5 24 20 15 20
15 0 11 -11 -2 -33 -9 -49 -16 -16 -6 -31 -10 -33 -7 -14 14 -23 95 -23 194 1
111 10 159 33 174 9 6 9 8 0 8 -7 0 -13 12 -13 26 0 14 4 23 8 20 11 -6 45 71
38 83 -4 5 -2 12 4 16 7 4 7 12 0 25 -5 10 -10 37 -10 59 0 22 -5 43 -10 46
-6 4 -8 15 -5 25 4 12 -1 23 -14 32 -11 8 -21 28 -23 48 -2 24 -8 34 -17 32
-11 -2 -12 8 -6 60 11 81 10 184 -5 378 -2 22 10 153 16 169 2 7 -1 20 -8 28
-7 8 -13 49 -15 90 -2 50 -8 80 -17 87 -8 6 -21 40 -30 75 -8 36 -20 69 -26
75 -13 13 -13 39 -1 31 5 -3 12 -1 16 5 3 6 -3 10 -15 10 -17 0 -20 4 -15 20
3 11 2 28 -4 37 -10 17 -11 17 -12 -2 -3 -22 -16 96 -23 195 -3 42 -2 54 3 35
l8 -30 11 27 c6 15 9 35 6 43 -4 8 -1 21 5 28 5 7 8 26 5 41 -4 24 -2 27 18
24 15 -2 24 -11 26 -25z m1855 -10 c2 -5 7 -20 11 -35 5 -22 3 -28 -9 -28 -10
0 -14 -5 -10 -12 4 -7 -10 5 -29 27 -20 22 -36 43 -36 48 0 4 15 7 34 7 19 0
37 -3 39 -7z m-94 -165 c1 -10 -6 -18 -14 -18 -16 0 -18 12 -8 49 6 23 7 23
14 5 4 -10 8 -27 8 -36z m201 12 c0 -5 -2 -10 -4 -10 -3 0 -8 5 -11 10 -3 6
-1 10 4 10 6 0 11 -4 11 -10z m-1740 -240 c0 -5 -5 -10 -11 -10 -5 0 -7 5 -4
10 3 6 8 10 11 10 2 0 4 -4 4 -10z m-4226 -526 c10 -4 16 -18 16 -41 0 -26 -4
-34 -14 -30 -7 3 -19 0 -25 -6 -10 -9 -11 -2 -7 33 2 25 5 46 5 48 1 3 8 2 25
-4z m-364 -183 c0 -5 -9 -7 -20 -4 -11 3 -20 7 -20 9 0 2 9 4 20 4 11 0 20 -4
20 -9z m35 -31 c3 -5 -1 -10 -9 -10 -9 0 -16 5 -16 10 0 6 4 10 9 10 6 0 13
-4 16 -10z m4377 -44 c3 -15 0 -27 -8 -30 -10 -4 -14 4 -14 30 0 39 15 39 22
0z m-3272 4 c0 -5 -4 -10 -10 -10 -5 0 -10 5 -10 10 0 6 5 10 10 10 6 0 10 -4
10 -10z m3267 -82 c-3 -8 -6 -5 -6 6 -1 11 2 17 5 13 3 -3 4 -12 1 -19z
m-3257 -2 c0 -2 -11 -11 -25 -20 -14 -9 -25 -13 -25 -8 0 5 10 14 23 20 27 13
27 13 27 8z m3257 -58 c-3 -8 -6 -5 -6 6 -1 11 2 17 5 13 3 -3 4 -12 1 -19z
m-5914 -318 c3 -72 2 -116 -3 -104 -13 32 -24 251 -12 239 5 -5 12 -66 15
-135z m47 85 c0 -8 -4 -15 -10 -15 -5 0 -7 7 -4 15 4 8 8 15 10 15 2 0 4 -7 4
-15z m710 -122 c0 -38 -15 -25 -17 15 -2 27 0 33 7 22 5 -8 10 -25 10 -37z
m-731 -193 c0 -23 -1 -23 -9 -5 -5 11 -9 29 -9 40 -1 17 1 17 9 5 5 -8 9 -26
9 -40z m6229 -77 c19 -52 21 -63 16 -78 -4 -8 -15 -15 -25 -15 -16 0 -18 8
-18 60 1 65 11 76 27 33z m2378 -249 c-3 -9 -12 -14 -19 -12 -17 6 -31 52 -23
74 6 16 10 15 28 -14 11 -18 17 -39 14 -48z m-2436 22 c0 -43 -11 -58 -37 -49
-8 3 -13 22 -13 49 0 40 2 44 25 44 23 0 25 -4 25 -44z m80 3 c0 -6 -6 -25
-14 -43 -9 -22 -10 -38 -4 -49 5 -10 5 -17 0 -17 -17 0 -41 108 -26 122 8 8
44 -3 44 -13z m-205 -49 c3 -5 1 -10 -4 -10 -6 0 -11 5 -11 10 0 6 2 10 4 10
3 0 8 -4 11 -10z m15 -47 c0 -8 8 -27 19 -41 23 -34 38 -77 22 -68 -7 4 -11
-1 -11 -13 0 -28 -26 -27 -41 1 -6 12 -20 31 -30 42 -28 30 -21 69 8 45 10 -9
13 -4 13 25 0 22 4 35 10 31 6 -3 10 -13 10 -22z m75 -43 c-3 -5 -16 -10 -28
-10 -18 0 -19 2 -7 10 20 13 43 13 35 0z m75 -4 c0 -16 -18 -31 -27 -22 -8 8
5 36 17 36 5 0 10 -6 10 -14z m1785 -596 c-16 -4 -41 -8 -55 -8 l-25 0 25 8
c14 4 39 8 55 8 l30 0 -30 -8z m-1398 -36 c-3 -3 -12 -4 -19 -1 -8 3 -5 6 6 6
11 1 17 -2 13 -5z m-3677 -48 c0 -2 -7 -7 -16 -10 -8 -3 -12 -2 -9 4 6 10 25
14 25 6z m4239 -193 c9 -10 25 -13 42 -9 22 4 31 1 39 -14 6 -11 20 -20 30
-20 21 0 28 -34 10 -45 -6 -4 -8 -11 -5 -16 4 -5 -3 -9 -14 -9 -11 0 -25 -9
-31 -20 -12 -22 -40 -17 -40 7 0 10 -6 13 -15 9 -9 -3 -18 1 -22 10 -3 8 -12
13 -19 10 -10 -4 -14 4 -14 29 0 31 -3 35 -26 35 -14 0 -35 5 -46 11 -20 11
-20 11 6 28 30 20 82 17 105 -6z m119 -210 c2 -13 7 -23 11 -23 13 0 10 -48
-3 -59 -6 -5 -21 -5 -33 0 -17 6 -23 16 -23 38 0 16 -4 33 -10 36 -5 3 -10 13
-10 21 0 11 9 14 33 12 24 -2 33 -8 35 -25z m17 -125 c29 -13 32 -23 8 -32
-11 -5 -26 2 -42 19 -21 20 -22 25 -9 25 9 0 29 -5 43 -12z m-5149 -304 c13
-38 19 -103 25 -284 5 -129 13 -268 19 -308 13 -91 13 -112 0 -112 -5 0 -10 7
-10 16 0 13 -16 15 -115 12 -68 -2 -115 -7 -115 -13 0 -5 -5 -3 -10 5 -5 8
-10 83 -10 165 l0 150 115 -3 c63 -2 115 0 115 5 0 4 -3 18 -6 31 -6 20 -12
22 -86 22 -43 0 -77 -4 -74 -9 3 -5 26 -7 52 -5 25 1 56 -1 67 -6 15 -6 -5 -9
-65 -9 -47 -1 -92 -3 -100 -6 -13 -5 -21 46 -22 135 0 49 48 247 85 353 l32
88 43 -89 c23 -49 50 -111 60 -138z m5363 29 c43 -148 45 -180 27 -321 -9 -68
-16 -184 -16 -258 l0 -134 -30 4 c-20 2 -30 -1 -30 -10 0 -9 11 -12 35 -10 29
3 36 0 39 -18 8 -41 39 -242 44 -279 l4 -39 -76 4 c-44 2 -76 -1 -76 -7 0 -5
-5 -4 -11 2 -9 9 -9 39 0 120 6 59 11 131 11 160 0 28 5 55 10 58 7 4 7 12 2
18 -5 7 -9 48 -11 92 -1 44 -11 149 -23 233 -21 148 -21 155 -4 235 31 149 59
257 66 257 4 0 21 -48 39 -107z m-4719 -109 c0 -8 -4 -14 -10 -14 -5 0 -10 9
-10 21 0 11 5 17 10 14 6 -3 10 -13 10 -21z m72 -226 c-15 -15 -24 -6 -16 16
5 12 10 14 17 7 8 -8 8 -14 -1 -23z m763 -18 c4 -6 -9 -10 -32 -9 -30 0 -34 2
-18 9 27 12 43 12 50 0z m85 0 c0 -5 -4 -10 -9 -10 -6 0 -13 5 -16 10 -3 6 1
10 9 10 9 0 16 -4 16 -10z m73 3 c-7 -2 -19 -2 -25 0 -7 3 -2 5 12 5 14 0 19
-2 13 -5z m107 -3 c0 -5 -4 -10 -9 -10 -6 0 -13 5 -16 10 -3 6 1 10 9 10 9 0
16 -4 16 -10z m63 3 c-7 -2 -19 -2 -25 0 -7 3 -2 5 12 5 14 0 19 -2 13 -5z
m-760 -10 c-7 -2 -21 -2 -30 0 -10 3 -4 5 12 5 17 0 24 -2 18 -5z m44 1 c-3
-3 -12 -4 -19 -1 -8 3 -5 6 6 6 11 1 17 -2 13 -5z m196 -1 c-7 -2 -19 -2 -25
0 -7 3 -2 5 12 5 14 0 19 -2 13 -5z m3856 -100 c-2 -54 -2 -55 -8 -18 -6 38
-3 75 5 75 2 0 3 -26 3 -57z m-5234 -317 c17 -19 21 -35 18 -62 -3 -26 1 -40
14 -49 10 -7 22 -11 27 -8 5 4 6 1 2 -5 -8 -13 -76 -17 -76 -4 0 4 5 13 11 19
13 13 8 68 -6 68 -5 0 -15 4 -21 8 -7 4 -14 0 -18 -8 -8 -22 -25 -18 -35 8 -7
16 -10 18 -14 7 -22 -63 -23 -77 -14 -99 9 -19 8 -26 -7 -37 -11 -7 -20 -28
-21 -48 l-3 -34 101 -6 c56 -4 118 -6 137 -5 19 0 59 0 88 -2 44 -2 53 -6 56
-23 2 -12 11 -52 20 -91 15 -71 31 -220 20 -197 -3 6 -11 12 -19 12 -7 0 -18
7 -25 15 -10 12 -15 13 -21 3 -9 -15 -70 -23 -78 -10 -3 5 -17 13 -30 17 -20
6 -23 4 -18 -9 5 -11 1 -16 -12 -16 -11 0 -21 9 -24 21 -3 12 -11 19 -18 17
-20 -7 -22 -26 -2 -31 10 -3 1 -5 -21 -6 -34 -1 -37 1 -26 15 12 13 7 15 -41
12 -30 -1 -64 1 -76 5 -18 6 -23 5 -23 -7 0 -9 7 -16 16 -16 8 0 12 -5 9 -10
-5 -8 -11 -7 -20 0 -8 7 -20 8 -26 4 -8 -4 -9 -3 -5 4 4 7 2 20 -3 29 -9 15
-10 12 -11 -17 0 -19 -7 -55 -15 -80 l-14 -45 3 70 c2 39 11 106 20 150 9 44
18 96 20 115 3 30 13 89 31 180 3 14 8 54 11 90 4 36 10 70 14 75 5 6 29 9 55
9 38 -1 52 -7 70 -28z m169 -48 c9 -37 16 -77 16 -90 -1 -22 -1 -22 -12 -3 -7
11 -12 27 -13 35 -1 8 -9 39 -19 67 -10 29 -14 58 -11 64 11 17 21 -1 39 -73z
m702 56 c-8 -7 -16 -19 -19 -26 -2 -7 -7 -10 -11 -7 -13 12 13 59 28 53 13 -5
13 -8 2 -20z m192 2 c3 -4 -19 -6 -49 -5 -29 1 -58 0 -64 -1 -20 -5 -45 0 -45
9 0 20 138 16 158 -3z m-1038 10 c0 -3 -4 -8 -10 -11 -5 -3 -10 -1 -10 4 0 6
5 11 10 11 6 0 10 -2 10 -4z m50 -18 c27 -29 25 -35 -9 -40 -27 -4 -29 -2 -28
29 1 39 9 41 37 11z m-2268 -21 c-22 -7 -36 -7 -43 0 -7 7 4 10 33 10 l43 0
-33 -10z m3098 -7 c0 -5 -4 -10 -10 -10 -5 0 -10 5 -10 10 0 6 5 10 10 10 6 0
10 -4 10 -10z m-2851 -35 c2 -3 -7 -5 -22 -5 -14 0 -32 -3 -41 -6 -11 -4 -16
-1 -16 11 0 13 7 15 37 10 20 -3 39 -8 42 -10z m-409 -5 c13 -8 13 -10 -2 -10
-9 0 -20 5 -23 10 -8 13 5 13 25 0z m1500 0 c0 -5 -2 -10 -4 -10 -3 0 -8 5
-11 10 -3 6 -1 10 4 10 6 0 11 -4 11 -10z m3448 -92 l3 -37 -48 1 c-147 2
-233 -4 -233 -18 0 -18 -2 -18 -63 4 -38 13 -51 14 -54 5 -6 -18 -60 -16 -66
2 -5 11 -22 14 -72 12 -73 -2 -87 -14 -22 -19 34 -2 41 -6 39 -20 -2 -11 3
-18 13 -18 11 0 15 -9 13 -30 -2 -32 -8 -34 -128 -32 -53 1 -55 1 -44 12 8 8
50 15 117 20 12 0 8 38 -5 43 -7 2 -21 -2 -30 -11 -16 -14 -18 -13 -18 4 0 10
-6 30 -13 44 -20 38 -11 49 30 43 26 -4 34 -3 29 5 -4 7 -15 13 -24 14 -38 4
225 13 393 13 l180 0 3 -37z m-4060 20 c-3 -9 -29 -13 -79 -14 -62 -2 -66 -1
-27 5 26 4 50 10 54 14 13 12 56 8 52 -5z m412 -3 c0 -11 -11 -15 -36 -15 -22
0 -33 4 -29 11 4 6 13 8 19 6 7 -3 19 -1 27 4 19 12 19 11 19 -6z m1021 -15
c-3 -3 -9 -9 -13 -14 -5 -5 -8 3 -8 18 0 22 2 25 14 14 8 -7 11 -15 7 -18z
m124 20 c3 -5 1 -10 -4 -10 -6 0 -11 5 -11 10 0 6 2 10 4 10 3 0 8 -4 11 -10z
m-1060 -10 c3 -5 -1 -10 -9 -10 -9 0 -16 5 -16 10 0 6 4 10 9 10 6 0 13 -4 16
-10z m-1241 -9 c6 -9 -40 -21 -80 -21 -33 0 -30 18 4 23 50 8 71 7 76 -2z
m240 0 c7 -11 -20 -22 -38 -15 -8 3 -17 0 -21 -5 -7 -12 -25 -5 -25 9 0 16 75
26 84 11z m202 -19 c-9 -9 -37 8 -31 18 5 8 11 7 21 -1 8 -6 12 -14 10 -17z
m-306 8 c0 -5 -4 -10 -10 -10 -5 0 -10 5 -10 10 0 6 5 10 10 10 6 0 10 -4 10
-10z m1344 -171 c8 -30 26 -80 39 -110 26 -57 47 -123 47 -149 0 -13 -1 -13
-10 0 -8 13 -11 13 -22 -2 -16 -20 -95 -21 -90 0 1 7 -8 12 -22 12 -13 0 -27
7 -30 16 -4 9 -9 14 -13 11 -3 -4 0 -14 7 -22 10 -12 10 -19 1 -28 -9 -9 -14
-9 -21 3 -7 11 -10 11 -10 2 0 -9 -15 -12 -52 -10 -46 3 -53 6 -56 26 -4 25
-14 28 -31 8 -18 -21 -58 -26 -57 -7 0 9 -6 16 -14 16 -8 0 -14 -8 -14 -17 2
-22 -14 -24 -22 -3 -4 8 -12 15 -18 15 -7 0 -21 6 -31 14 -18 13 -18 14 2 31
12 10 19 24 16 31 -6 17 9 18 25 2 9 -9 12 -9 12 0 0 7 -4 12 -9 12 -5 0 -11
9 -14 19 -2 11 -15 21 -27 23 -15 2 -24 11 -26 26 -3 18 1 22 22 22 16 0 23 4
18 11 -4 6 -20 8 -40 4 -37 -6 -50 13 -14 22 11 3 20 10 20 15 0 6 -7 7 -16 4
-9 -3 -23 -6 -31 -6 -10 0 -14 -6 -10 -19 3 -13 -1 -21 -14 -24 -30 -8 -23
-37 9 -38 20 -1 22 -3 6 -6 -34 -7 -74 14 -74 38 0 17 3 19 13 10 20 -16 57
12 40 30 -7 7 -23 14 -35 15 -30 2 -724 18 -805 19 -35 0 -63 3 -63 7 0 9 108
14 130 6 14 -5 18 -3 13 8 -3 7 0 14 6 14 6 0 11 -5 11 -11 0 -6 8 -2 18 9 16
20 30 21 392 27 325 5 638 11 706 14 12 1 26 11 32 24 l11 22 0 -22 c1 -24 16
-37 31 -28 8 5 7 11 -1 21 -8 10 -8 14 0 14 6 0 11 8 11 18 1 22 36 -67 54
-139z m636 141 c0 -5 -2 -10 -4 -10 -3 0 -8 5 -11 10 -3 6 -1 10 4 10 6 0 11
-4 11 -10z m5217 -36 c-3 -3 -12 -4 -19 -1 -8 3 -5 6 6 6 11 1 17 -2 13 -5z
m-2683 -13 c9 -15 -18 -31 -34 -21 -8 6 -25 10 -37 10 -13 0 -23 5 -23 10 0
12 87 13 94 1z m-174 -26 c0 -8 -9 -15 -19 -15 -10 0 -21 -7 -25 -15 -3 -10
-19 -15 -45 -15 -48 0 -47 19 2 42 43 21 87 22 87 3z m-4590 -2 c0 -11 -48
-32 -54 -25 -10 9 16 32 35 32 11 0 19 -3 19 -7z m50 0 c0 -5 -5 -15 -10 -23
-7 -11 -12 -12 -21 -3 -6 6 -8 16 -5 22 8 12 36 15 36 4z m140 -3 c0 -5 -2
-10 -4 -10 -3 0 -8 5 -11 10 -3 6 -1 10 4 10 6 0 11 -4 11 -10z m4510 -21 c0
-5 -7 -9 -15 -9 -9 0 -15 9 -15 21 0 18 2 19 15 9 8 -7 15 -16 15 -21z m-4783
9 c-3 -9 -23 -12 -68 -10 -95 4 -99 22 -5 22 58 0 77 -3 73 -12z m227 -3 c-4
-8 -8 -15 -10 -15 -2 0 -4 7 -4 15 0 8 4 15 10 15 5 0 7 -7 4 -15z m-591 -2
c-7 -2 -19 -2 -25 0 -7 3 -2 5 12 5 14 0 19 -2 13 -5z m5226 -7 c10 -11 9 -16
-5 -24 -9 -5 -14 -14 -10 -21 10 -16 26 -14 26 4 0 9 7 18 15 21 8 4 12 10 9
15 -3 5 0 9 5 9 6 0 11 -6 11 -14 0 -13 20 -26 41 -26 16 0 9 28 -8 33 -10 3
-2 5 17 6 19 0 42 -4 50 -9 13 -8 12 -10 -2 -10 -25 0 -22 -17 3 -23 23 -6 17
-27 -7 -27 -22 0 -17 -17 9 -25 20 -6 20 -7 -11 -16 -24 -7 -38 -7 -47 1 -8 7
-19 9 -25 5 -19 -12 -131 5 -123 18 12 19 10 41 -5 59 -11 14 -11 18 5 27 25
14 38 14 52 -3z m-549 -6 c-8 -5 -28 -9 -45 -9 -30 2 -30 2 5 9 51 11 57 11
40 0z m1410 -3 c86 -2 105 -5 105 -17 0 -10 -12 -16 -33 -18 -28 -3 -33 -7
-29 -22 5 -20 -14 -29 -46 -22 -12 3 -16 10 -12 23 6 17 4 18 -19 8 -14 -7
-26 -16 -26 -21 0 -4 -30 -8 -67 -8 -59 0 -70 3 -95 27 -21 20 -30 24 -41 15
-10 -9 -22 -9 -48 0 -19 6 -52 11 -73 12 -22 0 -41 6 -43 12 -2 7 21 12 69 13
40 1 73 3 74 4 1 1 42 1 91 -1 48 -1 135 -4 193 -5z m-610 -1 c0 -3 -4 -8 -10
-11 -5 -3 -10 -1 -10 4 0 6 5 11 10 11 6 0 10 -2 10 -4z m147 -2 c-3 -3 -12
-4 -19 -1 -8 3 -5 6 6 6 11 1 17 -2 13 -5z m703 1 c0 -2 -9 -9 -20 -15 -16 -9
-18 -8 -14 5 5 13 34 22 34 10z m98 -3 c9 -6 6 -11 -11 -19 -24 -11 -47 -2
-47 19 0 10 41 10 58 0z m760 -2 c51 -2 75 -7 79 -16 3 -8 9 -11 14 -8 5 3 9
1 9 -5 0 -5 17 -11 37 -13 20 -2 38 -9 41 -16 3 -11 -15 -13 -94 -9 -55 2
-108 1 -119 -4 -17 -6 -17 -8 -2 -8 19 -1 22 -14 7 -41 -8 -15 -5 -20 22 -29
36 -13 32 -20 -19 -37 -26 -9 -42 -10 -56 -2 -11 5 -37 7 -58 4 -21 -3 -40 -2
-44 4 -9 15 -56 8 -51 -7 4 -9 -5 -13 -29 -13 -19 0 -35 5 -35 10 0 6 -4 10
-10 10 -5 0 -7 -6 -4 -14 6 -16 -11 -30 -26 -21 -8 5 -8 11 0 20 8 10 8 15 0
20 -16 10 -24 -2 -26 -36 -1 -21 3 -29 15 -29 14 0 14 -2 1 -10 -8 -6 -27 -7
-42 -4 -20 4 -28 2 -28 -8 0 -10 16 -14 61 -13 55 0 63 3 70 22 7 19 16 23 46
22 21 0 52 3 68 8 35 11 68 6 59 -8 -3 -6 4 -13 16 -16 13 -3 19 -11 16 -19
-3 -8 -2 -14 2 -15 4 0 18 -2 32 -4 14 -2 54 -4 90 -6 36 -1 72 -6 81 -10 8
-4 33 -4 54 1 25 6 44 5 51 -1 7 -6 42 -8 78 -6 45 3 71 0 85 -9 15 -11 20
-11 23 -2 3 9 15 10 44 3 35 -9 39 -13 42 -45 3 -30 2 -33 -10 -19 -11 14 -28
15 -113 9 -55 -4 -174 -5 -265 -2 -171 5 -282 4 -289 -4 -9 -8 6 -12 84 -17
44 -4 81 -6 83 -7 1 0 2 -4 2 -10 0 -5 -37 -9 -87 -9 -49 1 -101 0 -118 0 -16
-1 -48 1 -70 5 -29 4 -36 2 -25 -5 13 -9 13 -11 -2 -11 -9 0 -29 5 -44 10 -26
10 -91 13 -251 11 -53 -1 -73 -5 -77 -16 -4 -12 8 -15 72 -17 123 -3 163 -5
169 -12 4 -3 -38 -6 -93 -7 -54 0 -108 -4 -119 -9 -11 -5 -15 -9 -10 -10 6 -1
15 -3 20 -4 6 -1 28 -5 50 -9 22 -4 62 -3 90 2 27 5 54 6 60 1 27 -21 265 -33
265 -13 0 7 -13 9 -40 6 -23 -3 -40 -1 -40 4 0 10 85 33 120 33 10 0 20 6 23
13 2 6 8 9 12 5 4 -4 -6 -18 -21 -32 -16 -13 -25 -28 -21 -32 11 -11 42 9 42
27 0 10 15 14 58 14 31 0 56 -3 55 -6 -2 -3 3 -13 11 -22 16 -20 35 -12 28 13
-4 16 0 18 28 13 19 -3 35 0 39 6 19 30 116 -7 116 -45 0 -20 5 -24 33 -24 40
0 52 -8 60 -41 6 -23 3 -28 -21 -34 -15 -4 -56 -9 -92 -11 -57 -4 -67 -2 -81
17 -9 13 -21 19 -28 15 -9 -6 -9 -11 0 -22 9 -11 6 -14 -18 -14 -16 0 -34 -5
-40 -11 -15 -15 -36 23 -26 47 5 12 3 15 -6 9 -8 -4 -11 -20 -9 -37 3 -16 1
-31 -4 -34 -4 -3 -8 -15 -9 -27 0 -21 -1 -21 -10 2 -5 13 -7 32 -4 42 7 22
-10 33 -31 21 -11 -6 -13 -11 -5 -16 6 -4 10 -17 10 -29 -1 -17 -2 -18 -6 -4
-6 21 -23 23 -23 1 0 -12 -6 -15 -24 -10 -14 3 -28 2 -31 -4 -10 -15 -35 -12
-35 5 0 8 -5 15 -11 15 -5 0 -8 -4 -4 -9 12 -21 -18 -22 -40 -1 -18 17 -31 21
-52 16 -68 -16 -87 -17 -107 -8 -103 48 -126 52 -126 22 0 -25 -40 -36 -78
-21 -15 6 -34 10 -42 9 -35 -3 -48 3 -54 27 -8 31 -23 33 -28 4 -2 -12 -10
-25 -18 -29 -8 -4 -24 -11 -35 -16 -27 -13 -55 -6 -55 13 0 13 -7 14 -42 8
-48 -9 -52 -9 -163 1 -52 5 -71 10 -55 14 20 5 25 13 27 44 1 22 7 44 13 50
17 17 11 45 -15 62 -33 22 -32 34 5 34 17 0 30 5 30 10 0 13 -47 13 -55 0 -4
-6 -12 -6 -23 0 -9 5 -37 14 -61 20 -23 6 -41 13 -39 15 2 2 31 5 66 6 34 1
62 5 62 9 0 11 -217 24 -575 34 -44 1 -86 6 -94 10 -8 5 -30 11 -50 13 -20 2
-45 6 -56 7 -11 2 -26 4 -34 5 -7 0 -11 7 -8 15 3 7 0 24 -7 38 -12 23 -12 23
22 20 19 -3 43 -12 53 -21 17 -14 81 -16 594 -17 407 0 575 3 575 10 0 7 36
10 107 9 121 -1 143 7 143 52 -1 28 -2 29 -14 12 -8 -10 -17 -14 -20 -9 -7 12
-99 26 -161 23 -27 -1 -57 3 -65 9 -8 5 -13 10 -10 10 5 1 184 8 220 9 8 0 35
0 60 -2 27 -1 52 3 63 12 26 22 21 31 -19 31 -21 0 -33 -4 -29 -10 3 -5 2 -10
-4 -10 -5 0 -13 4 -16 10 -3 5 -19 7 -35 3 -18 -3 -30 -1 -30 5 0 12 34 22 77
22 17 0 34 4 37 9 5 8 -52 15 -199 24 -32 2 -40 6 -40 22 0 14 8 21 30 25 29
5 410 5 553 0z m-935 -7 c3 -5 0 -19 -5 -33 l-10 -25 -9 23 c-9 24 -5 42 11
42 5 0 11 -3 13 -7z m260 0 c-7 -2 -19 -2 -25 0 -7 3 -2 5 12 5 14 0 19 -2 13
-5z m1799 -17 c7 -9 9 -46 12 -171 2 -50 -19 -29 -24 25 -3 30 -9 54 -15 52
-5 -1 -10 -10 -11 -20 -1 -9 -2 -27 -3 -39 0 -13 -6 -23 -12 -23 -6 0 -9 12
-8 28 2 15 0 33 -5 40 -13 21 -33 -4 -28 -36 3 -23 -1 -30 -17 -35 -16 -4 -21
0 -21 15 0 10 5 28 10 39 14 25 3 44 -15 29 -7 -6 -20 -7 -29 -4 -12 5 -17 2
-16 -7 5 -31 0 -53 -10 -43 -5 5 -6 24 0 47 4 22 6 50 4 63 -2 14 0 33 6 43 9
17 18 19 92 14 46 -3 86 -11 90 -17z m-742 4 c0 -5 -4 -10 -9 -10 -6 0 -13 5
-16 10 -3 6 1 10 9 10 9 0 16 -4 16 -10z m-93 -6 c-3 -3 -12 -4 -19 -1 -8 3
-5 6 6 6 11 1 17 -2 13 -5z m-7550 -36 c-3 -8 -6 -5 -6 6 -1 11 2 17 5 13 3
-3 4 -12 1 -19z m5841 11 c-2 -6 -7 -10 -11 -10 -4 1 -14 1 -22 1 -8 0 -15 5
-15 10 0 6 12 10 26 10 14 0 24 -5 22 -11z m-226 -11 c-17 -8 -26 -8 -34 0 -9
9 -4 12 23 11 32 0 33 -1 11 -11z m1993 2 c3 -5 1 -10 -4 -10 -6 0 -11 5 -11
10 0 6 2 10 4 10 3 0 8 -4 11 -10z m-6095 -30 c0 -5 -2 -10 -4 -10 -3 0 -8 5
-11 10 -3 6 -1 10 4 10 6 0 11 -4 11 -10z m5850 -10 c0 -16 -33 -18 -83 -5
-39 10 -17 23 39 21 32 -1 44 -5 44 -16z m-1920 -20 c-12 -8 -13 -11 -1 -19
19 -12 0 -20 -26 -10 -40 15 -27 30 32 37 6 1 3 -3 -5 -8z m519 -19 c16 -10
-118 -26 -159 -19 -20 3 -16 6 20 15 57 14 121 15 139 4z m-344 -12 c12 -5 -8
-8 -52 -8 -45 -1 -73 3 -73 10 0 11 94 10 125 -2z m925 1 c12 -8 13 -11 1 -19
-14 -9 -51 -3 -51 8 0 21 26 27 50 11z m-787 -7 c-7 -2 -19 -2 -25 0 -7 3 -2
5 12 5 14 0 19 -2 13 -5z m2480 -33 c-3 -11 -9 -20 -14 -20 -10 0 -12 33 -3
43 12 12 22 -3 17 -23z m-2798 -1 c-8 -12 -35 -12 -35 0 0 11 22 20 33 14 4
-2 5 -9 2 -14z m1635 -3 c0 -3 -4 -8 -10 -11 -5 -3 -10 -1 -10 4 0 6 5 11 10
11 6 0 10 -2 10 -4z m-6680 -26 c0 -5 -5 -10 -11 -10 -5 0 -8 -4 -4 -9 10 -17
-15 -22 -36 -8 -20 15 -20 15 8 25 37 14 43 14 43 2z m105 0 c3 -5 -1 -10 -9
-10 -8 0 -18 5 -21 10 -3 6 1 10 9 10 8 0 18 -4 21 -10z m95 -10 c0 -15 -7
-20 -24 -20 -14 0 -28 5 -31 10 -6 10 7 14 33 11 6 -1 12 3 12 9 0 5 2 10 5
10 3 0 5 -9 5 -20z m201 7 c-8 -10 -7 -17 1 -25 20 -20 3 -23 -38 -6 -29 12
-43 13 -56 5 -14 -9 -24 -8 -41 0 -14 8 -17 14 -9 17 6 2 10 8 6 13 -3 5 28 9
72 9 62 0 74 -2 65 -13z m399 3 c18 -12 -30 -12 -105 0 l-50 7 70 2 c39 0 77
-4 85 -9z m4125 -10 c-3 -5 -10 -10 -16 -10 -5 0 -9 5 -9 10 0 6 7 10 16 10 8
0 12 -4 9 -10z m1954 -16 c8 -7 -3 -11 -41 -17 -28 -4 -38 -2 -38 8 0 7 6 15
13 18 11 5 57 -2 66 -9z m-1915 -32 c6 -10 -30 -9 -40 1 -4 4 2 7 14 7 11 0
23 -4 26 -8z m-2217 -34 c-3 -7 -5 -2 -5 12 0 14 2 19 5 13 2 -7 2 -19 0 -25z
m5277 0 c5 -21 3 -28 -9 -28 -15 0 -22 40 -8 53 8 9 9 8 17 -25z m-1040 -89
c-3 -5 -12 -9 -20 -9 -17 0 -19 -16 -1 -23 6 -3 2 -6 -9 -6 -12 -1 -24 5 -27
13 -4 9 -15 12 -33 8 -19 -3 -25 -1 -22 8 2 7 22 15 43 17 22 2 41 6 43 8 8 7
32 -7 26 -16z m336 -24 c0 -19 -4 -35 -9 -35 -9 0 -12 49 -4 63 9 15 13 6 13
-28z m-2170 -7 c0 -5 -10 -8 -23 -8 -13 0 -28 -5 -34 -11 -6 -6 -17 -8 -24 -4
-9 6 -8 11 6 21 18 14 75 15 75 2z m2709 -35 c14 -11 14 -12 -6 -13 -27 0 -34
10 -25 41 5 21 7 22 10 4 3 -11 12 -25 21 -32z m-2081 25 c-7 -20 -48 -23 -48
-4 0 11 9 16 26 16 16 0 24 -5 22 -12z m1602 -3 c0 -8 -4 -15 -9 -15 -13 0
-22 16 -14 24 11 11 23 6 23 -9z m407 -7 c-3 -8 -6 -5 -6 6 -1 11 2 17 5 13 3
-3 4 -12 1 -19z m-1259 -16 c3 -9 -2 -13 -14 -10 -9 1 -19 9 -22 16 -3 9 2 13
14 10 9 -1 19 -9 22 -16z m89 12 c-3 -3 -12 -4 -19 -1 -8 3 -5 6 6 6 11 1 17
-2 13 -5z m-1560 -30 c8 -22 -11 -38 -25 -21 -7 8 -23 12 -37 9 -19 -3 -25
-11 -25 -29 0 -13 -4 -22 -8 -19 -4 2 -14 0 -22 -5 -13 -9 -13 -10 0 -8 29 3
41 -1 35 -11 -12 -19 10 -10 38 16 15 14 35 23 43 20 19 -7 18 -26 -1 -26 -8
0 -15 -4 -15 -9 0 -10 58 -23 71 -15 5 3 9 0 9 -6 0 -7 9 -9 23 -5 17 5 18 4
7 -4 -12 -9 -12 -11 3 -17 9 -3 29 -3 44 1 l27 6 -30 25 c-16 13 -38 23 -49
23 -36 -2 -46 1 -40 11 7 11 335 10 335 -2 0 -4 -18 -8 -40 -8 -22 0 -40 -4
-40 -9 0 -5 -25 -13 -55 -16 -52 -7 -75 -19 -61 -32 3 -4 17 -1 30 7 14 7 33
9 43 6 17 -7 17 -8 0 -21 -12 -9 -47 -13 -98 -13 -43 0 -82 -3 -87 -6 -4 -2
-14 -1 -22 5 -10 6 -11 9 -2 9 6 0 12 4 12 9 0 5 -82 10 -187 11 -104 1 -210
2 -236 2 -30 0 -47 4 -44 11 5 16 64 26 76 14 8 -8 15 -5 25 9 14 19 15 19 29
0 9 -13 20 -16 35 -12 29 9 28 26 0 27 -13 0 -1 6 25 12 54 13 53 27 0 27 -19
0 -42 7 -51 16 -15 15 -15 16 3 11 38 -11 113 -11 127 0 7 7 34 13 58 16 25 2
51 4 58 5 7 1 15 -5 19 -14z m2263 -4 c0 -5 -4 -10 -10 -10 -5 0 -10 5 -10 10
0 6 5 10 10 10 6 0 10 -4 10 -10z m60 0 c0 -5 -4 -10 -10 -10 -5 0 -10 5 -10
10 0 6 5 10 10 10 6 0 10 -4 10 -10z m-2723 -6 c-3 -3 -12 -4 -19 -1 -8 3 -5
6 6 6 11 1 17 -2 13 -5z m113 -4 c0 -5 -4 -10 -9 -10 -6 0 -13 5 -16 10 -3 6
1 10 9 10 9 0 16 -4 16 -10z m-1163 -46 c-3 -3 -12 -4 -19 -1 -8 3 -5 6 6 6
11 1 17 -2 13 -5z m1003 -4 c0 -5 -4 -10 -10 -10 -5 0 -10 5 -10 10 0 6 5 10
10 10 6 0 10 -4 10 -10z m1108 -15 c2 -25 -5 -29 -31 -19 -14 5 -13 8 1 24 23
25 27 24 30 -5z m-244 -1 c4 -10 1 -14 -6 -12 -15 5 -23 28 -10 28 5 0 13 -7
16 -16z m-1087 -10 c-3 -3 -12 -4 -19 -1 -8 3 -5 6 6 6 11 1 17 -2 13 -5z
m1263 -9 c0 -8 -4 -15 -10 -15 -5 0 -10 7 -10 15 0 8 5 15 10 15 6 0 10 -7 10
-15z m-240 -5 c0 -5 -4 -10 -10 -10 -5 0 -10 5 -10 10 0 6 5 10 10 10 6 0 10
-4 10 -10z m-825 -20 c-3 -5 -10 -10 -16 -10 -5 0 -9 5 -9 10 0 6 7 10 16 10
8 0 12 -4 9 -10z m805 -10 c0 -5 -5 -10 -11 -10 -5 0 -7 5 -4 10 3 6 8 10 11
10 2 0 4 -4 4 -10z m343 -5 c1 -5 -15 -11 -35 -13 -23 -2 -38 1 -38 8 0 6 5 8
10 5 6 -3 10 -1 10 5 0 14 50 9 53 -5z m-250 -2 c-7 -2 -19 -2 -25 0 -7 3 -2
5 12 5 14 0 19 -2 13 -5z m142 -3 c-3 -5 -15 -10 -25 -10 -10 0 -22 5 -25 10
-4 6 7 10 25 10 18 0 29 -4 25 -10z m-710 -20 c3 -5 1 -10 -4 -10 -6 0 -11 5
-11 10 0 6 2 10 4 10 3 0 8 -4 11 -10z m138 -7 c10 -3 17 -13 15 -22 -3 -12
-13 -15 -43 -13 -22 2 -44 7 -48 12 -13 12 23 42 42 34 9 -3 24 -9 34 -11z
m-793 -2 c0 -6 -5 -13 -10 -16 -15 -9 -43 3 -35 15 8 13 45 13 45 1z m327 3
c-3 -3 -12 -4 -19 -1 -8 3 -5 6 6 6 11 1 17 -2 13 -5z m143 -4 c0 -5 -9 -10
-20 -10 -11 0 -20 5 -20 10 0 6 9 10 20 10 11 0 20 -4 20 -10z m60 -6 c0 -2
-9 -4 -21 -4 -11 0 -18 4 -14 10 5 8 35 3 35 -6z m70 1 c-7 -8 -9 -15 -4 -15
4 0 3 -5 -3 -11 -8 -8 -17 -5 -32 10 -28 28 -27 31 15 31 31 0 35 -2 24 -15z
m90 -5 c0 -5 -5 -10 -11 -10 -5 0 -7 5 -4 10 3 6 8 10 11 10 2 0 4 -4 4 -10z
m1048 -27 c-2 -45 -24 -103 -38 -103 -6 0 -10 -7 -10 -17 0 -15 -1 -15 -18 0
-23 21 -42 21 -57 1 -11 -15 -14 -15 -39 1 -15 10 -32 29 -37 42 -5 13 -17 23
-28 23 -10 0 -24 6 -30 14 -9 11 -6 15 16 19 16 3 40 3 56 0 30 -6 38 11 10
21 -32 13 3 21 76 19 39 -1 73 2 76 8 14 21 25 7 23 -28z m-1078 7 c0 -5 -9
-10 -20 -10 -11 0 -20 5 -20 10 0 6 9 10 20 10 11 0 20 -4 20 -10z m293 -1
c-8 -8 -16 -8 -30 0 -16 9 -14 10 12 11 21 0 26 -3 18 -11z m214 5 c-3 -3 -12
-4 -19 -1 -8 3 -5 6 6 6 11 1 17 -2 13 -5z m313 -4 c0 -5 -6 -10 -14 -10 -8 0
-18 5 -21 10 -3 6 3 10 14 10 12 0 21 -4 21 -10z m-6010 -25 c63 0 122 -2 130
-5 9 -3 14 0 13 8 -4 18 24 15 31 -4 4 -9 4 -19 2 -21 -7 -8 -125 -5 -138 3
-20 13 -57 10 -63 -3 -3 -10 -23 -13 -65 -11 -46 2 -59 5 -55 16 3 7 5 18 5
23 0 6 6 7 13 2 6 -4 64 -8 127 -8z m443 0 c1 -6 -10 -11 -25 -13 -31 -4 -39
14 -10 21 23 6 33 4 35 -8z m4562 5 c3 -5 1 -10 -4 -10 -6 0 -11 5 -11 10 0 6
2 10 4 10 3 0 8 -4 11 -10z m3337 -15 c-2 -14 -6 -25 -8 -25 -2 0 -4 11 -4 25
0 14 4 25 9 25 4 0 6 -11 3 -25z m-7977 5 c3 -5 -1 -10 -9 -10 -9 0 -16 5 -16
10 0 6 4 10 9 10 6 0 13 -4 16 -10z m3575 0 c0 -5 -7 -10 -15 -10 -8 0 -15 5
-15 10 0 6 7 10 15 10 8 0 15 -4 15 -10z m-3717 -6 c11 -11 -3 -24 -18 -18 -8
4 -12 10 -9 15 6 11 18 12 27 3z m1307 -20 c0 -9 -11 -14 -32 -14 l-33 0 25
19 c26 21 40 19 40 -5z m2353 5 c-6 -6 -18 -6 -28 -3 -18 7 -18 8 1 14 23 9
39 1 27 -11z m1399 -11 c-9 -9 -12 -7 -12 12 0 19 3 21 12 12 9 -9 9 -15 0
-24z m687 23 c12 -8 12 -12 -2 -26 -10 -9 -17 -12 -17 -6 0 6 -11 11 -25 11
-16 0 -25 6 -25 15 0 17 46 21 69 6z m-4600 -23 c12 -16 10 -18 -25 -18 l-39
0 25 20 c14 10 25 18 25 17 0 -1 7 -10 14 -19z m2376 12 c-3 -5 -12 -7 -20 -3
-21 7 -19 13 6 13 11 0 18 -4 14 -10z m1580 0 c3 -5 1 -10 -4 -10 -6 0 -11 5
-11 10 0 6 2 10 4 10 3 0 8 -4 11 -10z m122 4 c-3 -3 -12 -4 -19 -1 -8 3 -5 6
6 6 11 1 17 -2 13 -5z m75 -6 c-8 -8 -17 -8 -34 0 -22 10 -21 11 12 11 26 1
31 -2 22 -11z m175 6 c-3 -3 -12 -4 -19 -1 -8 3 -5 6 6 6 11 1 17 -2 13 -5z
m83 2 c0 -11 -19 -15 -25 -6 -3 5 1 10 9 10 9 0 16 -2 16 -4z m53 -3 c-7 -2
-21 -2 -30 0 -10 3 -4 5 12 5 17 0 24 -2 18 -5z m1247 -13 c0 -5 -7 -10 -15
-10 -8 0 -15 5 -15 10 0 6 7 10 15 10 8 0 15 -4 15 -10z m-6150 -10 c0 -5 -7
-10 -15 -10 -8 0 -15 5 -15 10 0 6 7 10 15 10 8 0 15 -4 15 -10z m310 0 c0 -5
-5 -10 -11 -10 -5 0 -7 5 -4 10 3 6 8 10 11 10 2 0 4 -4 4 -10z m4800 -20 c23
-15 -6 -30 -45 -23 -38 7 -43 12 -25 23 19 12 51 12 70 0z m-6150 -9 c0 -12
-28 -22 -34 -12 -3 5 -3 11 1 15 9 9 33 7 33 -3z m105 1 c12 -9 19 -42 8 -42
-4 0 -13 11 -20 25 -11 25 -7 31 12 17z m5792 -24 c-3 -8 -6 -5 -6 6 -1 11 2
17 5 13 3 -3 4 -12 1 -19z m-4557 -8 c0 -5 -9 -10 -20 -10 -11 0 -20 5 -20 10
0 6 9 10 20 10 11 0 20 -4 20 -10z m275 3 c-11 -3 -26 -12 -32 -21 -12 -14
-13 -13 -13 6 0 18 5 22 33 21 20 -1 25 -3 12 -6z m-1535 -13 c0 -5 -9 -10
-20 -10 -11 0 -20 5 -20 10 0 6 9 10 20 10 11 0 20 -4 20 -10z m85 0 c3 -5 -1
-10 -9 -10 -9 0 -16 5 -16 10 0 6 4 10 9 10 6 0 13 -4 16 -10z m210 0 c-3 -5
-13 -10 -21 -10 -8 0 -14 5 -14 10 0 6 9 10 21 10 11 0 17 -4 14 -10z m175 0
c0 -5 -15 -9 -32 -9 l-33 1 30 8 c17 4 31 8 33 9 1 0 2 -3 2 -9z m85 0 c-3 -5
-12 -7 -20 -3 -21 7 -19 13 6 13 11 0 18 -4 14 -10z m765 6 c0 -3 -4 -8 -10
-11 -5 -3 -10 -1 -10 4 0 6 5 11 10 11 6 0 10 -2 10 -4z m285 -9 c10 -8 14
-16 9 -19 -14 -9 -56 11 -49 22 8 13 18 13 40 -3z m97 -19 c-6 -6 -16 -7 -23
-3 -9 6 -7 12 7 22 21 15 34 -1 16 -19z m2820 9 c-18 -6 -36 -7 -39 -3 -12 12
17 23 45 18 l27 -6 -33 -9z m-62 3 c4 0 6 -8 3 -19 -5 -21 33 -37 52 -21 6 5
14 0 22 -16 10 -22 9 -24 -12 -24 -13 0 -35 -4 -49 -10 -14 -5 -33 -7 -41 -4
-13 5 -13 8 0 27 20 28 19 37 -4 37 -14 0 -18 5 -14 21 4 12 11 18 20 15 8 -3
18 -6 23 -6z m2395 0 c-3 -5 -13 -10 -21 -10 -8 0 -12 5 -9 10 3 6 13 10 21
10 8 0 12 -4 9 -10z m202 -1 c-29 -6 -60 -6 -80 0 -26 8 -18 9 48 9 77 0 78
-1 32 -9z m-2667 -34 c0 -9 -9 -15 -21 -15 -18 0 -19 2 -9 15 7 8 16 15 21 15
5 0 9 -7 9 -15z m234 9 c9 -3 16 -15 16 -26 0 -15 -5 -18 -21 -13 -15 5 -19 4
-15 -4 4 -6 0 -11 -9 -11 -9 0 -14 4 -11 9 3 5 -2 15 -10 22 -15 12 -14 14 7
20 13 4 25 7 26 8 1 1 8 -2 17 -5z m2103 0 c-3 -3 -12 -4 -19 -1 -8 3 -5 6 6
6 11 1 17 -2 13 -5z m-6852 -14 c3 -5 -3 -10 -15 -10 -12 0 -18 5 -15 10 3 6
10 10 15 10 5 0 12 -4 15 -10z m7208 3 c-13 -2 -33 -2 -45 0 -13 2 -3 4 22 4
25 0 35 -2 23 -4z m-6938 -12 c63 -1 47 -24 -17 -24 -24 1 -47 -2 -53 -5 -21
-13 -55 -10 -55 4 0 17 -17 19 -22 2 -7 -20 -74 -16 -88 6 -7 11 -7 16 -1 12
6 -4 17 -3 25 1 13 7 69 8 211 4z m108 3 c3 -3 3 -12 0 -20 -4 -11 -9 -12 -19
-3 -8 6 -11 15 -8 20 6 10 18 12 27 3z m4032 -14 c-27 -12 -35 -12 -35 0 0 6
12 10 28 9 24 0 25 -1 7 -9z m-235 -10 c-19 -13 -30 -13 -30 0 0 6 10 10 23
10 18 0 19 -2 7 -10z m1225 -10 c-3 -5 -13 -10 -21 -10 -8 0 -12 5 -9 10 3 6
13 10 21 10 8 0 12 -4 9 -10z m-1089 -22 c-9 -5 -27 -7 -39 -5 -18 4 -18 4 6
6 15 0 27 6 27 12 0 5 5 7 11 3 8 -5 6 -10 -5 -16z m169 2 c-3 -5 -19 -10 -36
-10 -16 0 -29 5 -29 10 0 6 16 10 36 10 21 0 33 -4 29 -10z m370 1 c8 -14 -13
-24 -33 -16 -14 5 -14 7 -2 15 19 12 27 12 35 1z m-177 -18 c18 -4 20 -8 10
-14 -20 -13 -42 -11 -64 6 -18 14 -18 14 6 15 14 0 36 -3 48 -7z m1545 0 c-7
-2 -19 -2 -25 0 -7 3 -2 5 12 5 14 0 19 -2 13 -5z m-2005 -42 c10 -6 7 -10
-12 -13 -26 -5 -41 3 -29 16 9 8 25 7 41 -3z m-3478 -20 c0 -12 -20 -25 -27
-18 -7 7 6 27 18 27 5 0 9 -4 9 -9z m-594 -18 c3 10 17 15 35 15 16 -1 29 -2
29 -4 0 -15 -14 -32 -25 -28 -7 3 -15 -1 -18 -9 -4 -10 7 -13 44 -14 36 0 49
3 49 14 0 11 4 11 21 2 14 -7 45 -8 89 -4 79 8 106 -9 30 -19 -28 -4 -50 -10
-50 -14 0 -13 132 -7 164 6 22 10 32 10 43 0 22 -18 -9 -31 -73 -29 -29 0 -63
-3 -76 -8 l-23 -8 23 -7 c12 -4 22 -12 22 -17 0 -5 10 -3 23 5 31 20 149 25
171 7 10 -9 13 -18 7 -24 -12 -12 -381 -18 -381 -6 0 5 14 12 30 16 30 6 38
17 21 28 -6 3 -15 -1 -22 -8 -10 -10 -24 -11 -54 -6 -22 5 -57 8 -77 9 -41 0
-52 16 -15 22 12 2 44 0 72 -5 38 -7 51 -6 60 6 5 7 16 12 23 10 6 -3 12 0 12
6 0 13 -27 15 -34 2 -4 -5 -23 -7 -44 -5 -20 3 -45 6 -54 7 -10 1 -18 7 -18
14 0 7 -4 13 -10 13 -5 0 -10 -7 -10 -15 0 -17 -35 -21 -45 -5 -3 6 -1 10 5
10 8 0 10 9 6 24 -7 29 13 41 31 18 11 -13 13 -13 19 1z m530 -5 l-21 -17 28
-1 c15 0 39 0 53 0 14 0 33 -4 42 -9 12 -7 2 -13 -41 -27 -31 -10 -57 -20 -57
-23 0 -8 53 -8 60 -1 3 3 22 3 42 0 29 -4 36 -8 28 -19 -7 -12 -11 -13 -25 -1
-12 10 -21 10 -38 2 -44 -22 -77 -19 -77 8 0 16 -7 20 -37 21 -21 1 -41 1 -45
0 -13 -2 -4 23 12 36 10 9 11 12 3 13 -7 0 -13 4 -13 8 0 14 39 28 75 28 32 0
32 0 11 -18z m199 2 c3 -5 -1 -10 -10 -10 -9 0 -13 5 -10 10 3 6 8 10 10 10 2
0 7 -4 10 -10z m997 -2 c-7 -7 -12 -25 -12 -41 0 -24 -3 -27 -14 -18 -23 19
-2 70 29 71 5 0 4 -5 -3 -12z m5748 -8 c0 -5 -9 -10 -20 -10 -11 0 -20 5 -20
10 0 6 9 10 20 10 11 0 20 -4 20 -10z m-6650 -15 c0 -8 -4 -15 -10 -15 -5 0
-7 7 -4 15 4 8 8 15 10 15 2 0 4 -7 4 -15z m838 -25 c3 -15 -1 -19 -15 -14
-11 4 -14 3 -6 -3 6 -4 13 -26 15 -48 l3 -40 80 -1 c44 -1 95 -6 114 -12 19
-6 38 -9 43 -6 5 3 17 2 26 -2 9 -4 28 -6 41 -5 21 2 23 0 17 -22 -4 -18 -1
-27 10 -31 15 -6 15 -8 0 -25 -9 -10 -14 -25 -11 -33 9 -22 -7 -25 -115 -24
l-95 1 3 25 c2 14 0 21 -5 17 -4 -5 -9 -13 -9 -18 -1 -5 -2 -13 -3 -18 -1 -8
-54 -13 -143 -13 -24 0 -74 0 -113 -1 -178 -2 -466 4 -563 12 -25 2 -8 45 23
60 l30 15 -39 11 c-45 13 -58 34 -27 42 25 6 28 30 4 36 -12 3 -9 5 8 6 19 1
28 -5 32 -19 6 -25 23 -26 36 -1 7 13 32 22 86 32 43 7 75 18 75 25 0 6 19 15
43 19 33 7 37 9 17 12 -56 9 -51 17 15 25 39 5 84 10 100 12 17 2 38 -1 48 -6
10 -5 17 -5 17 1 0 11 72 17 180 14 67 -2 75 -4 78 -23z m2271 14 c3 -3 -2
-11 -10 -19 -12 -12 -16 -11 -26 11 -11 23 -10 24 10 18 12 -3 24 -8 26 -10z
m-3586 -1 c-7 -2 -19 -2 -25 0 -7 3 -2 5 12 5 14 0 19 -2 13 -5z m353 -10 c10
-11 29 -16 49 -14 18 1 36 -2 40 -8 7 -12 -5 -14 -45 -11 -29 2 -70 26 -70 40
0 14 6 12 26 -7z m161 -29 c-3 -3 -12 -4 -19 -1 -8 3 -5 6 6 6 11 1 17 -2 13
-5z m3173 -4 c0 -5 -4 -10 -10 -10 -5 0 -10 5 -10 10 0 6 5 10 10 10 6 0 10
-4 10 -10z m-4140 -10 c22 -7 21 -8 -12 -9 -21 -1 -38 4 -38 9 0 11 14 11 50
0z m90 -40 c0 -5 -13 -10 -30 -10 -16 0 -30 5 -30 10 0 6 14 10 30 10 17 0 30
-4 30 -10z m95 1 c3 -5 1 -13 -5 -16 -15 -9 -43 3 -35 15 8 13 32 13 40 1z
m555 -11 c-19 -13 -30 -13 -30 0 0 6 10 10 23 10 18 0 19 -2 7 -10z m137 -11
c-14 -8 -22 -8 -30 0 -8 8 -3 11 19 11 25 -1 27 -2 11 -11z m-907 -29 c0 -5
-4 -10 -10 -10 -5 0 -10 5 -10 10 0 6 5 10 10 10 6 0 10 -4 10 -10z m166 -14
c8 -8 14 -19 14 -25 0 -6 14 -11 31 -11 18 0 28 -4 24 -10 -4 -6 -10 -8 -14
-5 -16 9 -171 13 -176 4 -11 -16 -25 -10 -25 12 0 15 5 19 18 15 9 -3 37 -8
61 -11 42 -5 43 -4 39 20 -6 28 6 32 28 11z m724 4 c0 -5 -7 -10 -15 -10 -8 0
-15 5 -15 10 0 6 7 10 15 10 8 0 15 -4 15 -10z m30 0 c0 -5 -4 -10 -10 -10 -5
0 -10 5 -10 10 0 6 5 10 10 10 6 0 10 -4 10 -10z m60 0 c0 -5 -4 -10 -10 -10
-5 0 -10 5 -10 10 0 6 5 10 10 10 6 0 10 -4 10 -10z m6680 0 c0 -5 -4 -10 -9
-10 -6 0 -13 5 -16 10 -3 6 1 10 9 10 9 0 16 -4 16 -10z m-2685 -10 c59 -9 58
-10 -23 -17 -67 -5 -112 1 -112 17 0 12 63 12 135 0z m203 0 c66 0 41 -18 -37
-26 -63 -7 -63 -7 -51 15 7 14 17 20 27 17 8 -3 35 -6 61 -6z m-5191 -30 c-11
-19 -27 -27 -27 -14 0 15 22 44 30 39 6 -4 5 -14 -3 -25z m4143 15 c0 -8 -4
-15 -10 -15 -5 0 -10 5 -10 11 0 5 -4 8 -8 5 -4 -2 -14 -1 -22 5 -11 6 -6 9
18 9 22 0 32 -5 32 -15z m1170 11 c0 -2 -9 -6 -20 -9 -11 -3 -20 -1 -20 4 0 5
9 9 20 9 11 0 20 -2 20 -4z m-4323 -31 c-3 -9 -65 -12 -127 -5 -24 2 -24 3 5
10 43 10 125 7 122 -5z m3890 -12 c24 -3 46 -10 49 -14 9 -15 -27 -23 -47 -11
-14 9 -20 8 -27 -4 -10 -17 -65 -16 -147 4 l-40 10 40 1 c22 1 54 8 70 16 17
7 37 11 45 9 8 -3 34 -8 57 -11z m468 -4 c33 -1 68 -6 78 -11 10 -5 25 -5 37
2 17 9 20 8 20 -8 0 -15 -9 -20 -42 -25 -76 -10 -193 -3 -193 11 0 6 -4 11
-10 10 -5 -2 -9 -6 -8 -9 4 -13 -99 -20 -113 -8 -10 8 -17 9 -28 0 -17 -14
-41 11 -32 34 5 13 23 14 118 10 62 -2 140 -5 173 -6z m-4305 -35 c0 -34 -1
-36 -27 -29 -27 6 -43 21 -43 38 0 5 9 5 20 2 14 -5 20 -2 20 9 0 9 7 16 15
16 11 0 15 -11 15 -36z m3025 26 c3 -5 1 -10 -4 -10 -6 0 -11 5 -11 10 0 6 2
10 4 10 3 0 8 -4 11 -10z m595 -5 c0 -8 -2 -15 -4 -15 -2 0 -6 7 -10 15 -3 8
-1 15 4 15 6 0 10 -7 10 -15z m317 -15 c2 -11 -1 -20 -6 -20 -10 0 -21 36 -13
44 8 8 15 -1 19 -24z m33 26 c0 -3 -4 -8 -10 -11 -5 -3 -10 -1 -10 4 0 6 5 11
10 11 6 0 10 -2 10 -4z m3310 -11 c0 -9 7 -18 16 -22 13 -5 13 -7 2 -14 -25
-16 -38 -9 -38 21 0 17 5 30 10 30 6 0 10 -7 10 -15z m-7560 -5 c0 -5 -2 -10
-4 -10 -3 0 -8 5 -11 10 -3 6 -1 10 4 10 6 0 11 -4 11 -10z m174 -1 c2 -2 7
-14 10 -26 6 -20 4 -23 -18 -23 -16 0 -26 6 -26 14 0 19 -30 29 -46 15 -13
-11 -34 -5 -34 11 0 5 8 10 18 12 20 5 91 2 96 -3z m-673 -16 c17 -17 -17 -39
-36 -23 -8 7 -25 10 -37 7 -28 -7 -59 9 -41 21 17 11 101 8 114 -5z m5309 3
c0 -8 -4 -17 -9 -21 -12 -7 -24 12 -16 25 9 15 25 12 25 -4z m-5542 -14 c2 -7
-3 -12 -12 -12 -9 0 -16 7 -16 16 0 17 22 14 28 -4z m620 7 c3 -2 20 -6 34 -8
8 -1 7 -7 -4 -18 -14 -13 -20 -14 -32 -4 -8 7 -24 10 -35 6 -26 -8 -42 1 -35
19 4 11 59 15 72 5z m87 -19 c3 -5 1 -10 -4 -10 -6 0 -11 5 -11 10 0 6 2 10 4
10 3 0 8 -4 11 -10z m4795 -51 c0 -10 -4 -19 -10 -19 -5 0 -10 12 -10 26 0 14
4 23 10 19 6 -3 10 -15 10 -26z m-4205 -17 c-3 -3 -11 0 -18 7 -9 10 -8 11 6
5 10 -3 15 -9 12 -12z m-55 -22 c0 -5 -4 -10 -10 -10 -5 0 -10 5 -10 10 0 6 5
10 10 10 6 0 10 -4 10 -10z m-934 -18 c-7 -12 -95 -12 -102 -1 -3 5 20 9 51 9
31 0 54 -4 51 -8z m599 -52 c-8 -13 -35 -13 -35 0 0 6 9 10 21 10 11 0 17 -4
14 -10z m3998 -7 c-7 -2 -19 -2 -25 0 -7 3 -2 5 12 5 14 0 19 -2 13 -5z m61
-18 c-4 -8 -16 -15 -28 -15 -20 0 -20 1 4 14 14 8 26 14 27 15 1 1 0 -6 -3
-14z m-1908 -2 c-7 -7 -77 -5 -85 2 -2 3 17 5 44 5 27 0 45 -3 41 -7z"/>
<path d="M7101 4454 c0 -11 3 -14 6 -6 3 7 2 16 -1 19 -3 4 -6 -2 -5 -13z"/>
<path d="M6930 4090 c0 -5 5 -10 10 -10 6 0 10 5 10 10 0 6 -4 10 -10 10 -5 0
-10 -4 -10 -10z"/>
<path d="M8130 3060 c0 -5 5 -10 10 -10 6 0 10 5 10 10 0 6 -4 10 -10 10 -5 0
-10 -4 -10 -10z"/>
<path d="M2830 2309 c0 -5 5 -7 10 -4 6 3 10 8 10 11 0 2 -4 4 -10 4 -5 0 -10
-5 -10 -11z"/>
<path d="M2774 1548 c-10 -15 -1 -17 36 -8 19 4 31 9 25 10 -30 7 -56 6 -61
-2z"/>
<path d="M3000 1550 c-18 -3 -35 -11 -38 -19 -3 -10 14 -12 92 -10 53 2 96 1
96 -3 0 -7 -64 -17 -117 -18 -18 0 -39 -1 -45 -1 -7 -1 -20 2 -29 5 -10 5 -19
1 -22 -8 -4 -10 -1 -13 8 -10 8 3 19 2 26 -2 24 -15 142 -14 173 1 16 9 27 12
23 9 -3 -3 -2 -16 3 -29 6 -17 5 -27 -5 -35 -10 -9 -14 -7 -17 7 -3 15 -5 14
-10 -5 -4 -13 -4 -21 -1 -18 4 3 17 -1 30 -9 28 -19 29 -14 11 81 l-11 62 -66
4 c-37 2 -82 1 -101 -2z"/>
<path d="M2849 1530 c-8 -11 -29 -21 -49 -23 -30 -3 -35 -8 -42 -38 -4 -19 -5
-42 -2 -52 8 -26 27 -9 20 18 -4 14 0 28 10 36 14 11 16 9 14 -21 -3 -49 -1
-60 9 -60 13 0 22 43 11 54 -19 19 -9 29 25 23 26 -4 35 -2 35 8 0 7 9 17 20
20 11 3 20 11 20 16 0 5 7 9 15 9 27 0 15 17 -16 24 -47 9 -55 8 -70 -14z"/>
<path d="M2930 1450 c0 -5 7 -10 16 -10 8 0 12 5 9 10 -3 6 -10 10 -16 10 -5
0 -9 -4 -9 -10z"/>
<path d="M2852 1428 c7 -19 38 -22 38 -4 0 10 -9 16 -21 16 -12 0 -19 -5 -17
-12z"/>
<path d="M3006 1421 c-3 -5 1 -12 10 -15 22 -9 85 4 78 15 -7 12 -81 12 -88 0z"/>
<path d="M3185 1350 c-3 -5 -1 -10 4 -10 6 0 11 5 11 10 0 6 -2 10 -4 10 -3 0
-8 -4 -11 -10z"/>
<path d="M1828 1533 c6 -2 18 -2 25 0 6 3 1 5 -13 5 -14 0 -19 -2 -12 -5z"/>
<path d="M1830 1501 c0 -6 5 -13 10 -16 6 -3 10 1 10 9 0 9 -4 16 -10 16 -5 0
-10 -4 -10 -9z"/>
<path d="M2166 1503 c-4 -4 -23 -6 -42 -4 -19 1 -34 -2 -34 -8 0 -11 28 -16
60 -11 18 2 36 18 29 25 -3 3 -9 2 -13 -2z"/>
<path d="M2050 1490 c0 -5 7 -10 15 -10 8 0 15 5 15 10 0 6 -7 10 -15 10 -8 0
-15 -4 -15 -10z"/>
<path d="M2057 1440 c6 -23 19 -26 26 -6 6 16 -1 26 -19 26 -7 0 -10 -8 -7
-20z"/>
<path d="M2200 1436 c0 -9 7 -16 16 -16 17 0 14 22 -4 28 -7 2 -12 -3 -12 -12z"/>
<path d="M7340 1540 c0 -5 5 -10 10 -10 6 0 10 5 10 10 0 6 -4 10 -10 10 -5 0
-10 -4 -10 -10z"/>
<path d="M7260 1470 c0 -5 4 -10 9 -10 6 0 13 5 16 10 3 6 -1 10 -9 10 -9 0
-16 -4 -16 -10z"/>
<path d="M6580 1091 c0 -11 40 -22 53 -14 5 3 3 9 -4 14 -18 11 -49 11 -49 0z"/>
<path d="M7265 1081 c-6 -11 9 -23 19 -14 9 9 7 23 -3 23 -6 0 -12 -4 -16 -9z"/>
<path d="M7310 1080 c0 -13 11 -13 30 0 12 8 11 10 -7 10 -13 0 -23 -4 -23
-10z"/>
<path d="M7463 1062 c-29 -2 -53 -7 -53 -12 0 -11 110 -17 117 -7 10 16 -12
22 -64 19z"/>
<path d="M7520 990 c0 -6 27 -10 61 -10 37 0 58 4 54 10 -3 6 -31 10 -61 10
-30 0 -54 -4 -54 -10z"/>
<path d="M6430 950 c0 -5 9 -10 21 -10 11 0 17 5 14 10 -3 6 -13 10 -21 10 -8
0 -14 -4 -14 -10z"/>
<path d="M6970 940 c0 -5 6 -10 14 -10 8 0 18 5 21 10 3 6 -3 10 -14 10 -12 0
-21 -4 -21 -10z"/>
<path d="M8350 1396 c0 -9 5 -16 10 -16 6 0 10 4 10 9 0 6 -4 13 -10 16 -5 3
-10 -1 -10 -9z"/>
<path d="M5705 1000 c3 -5 13 -10 21 -10 8 0 12 5 9 10 -3 6 -13 10 -21 10 -8
0 -12 -4 -9 -10z"/>
<path d="M6357 859 c8 -8 22 -8 50 -1 l38 10 -49 1 c-37 1 -47 -2 -39 -10z"/>
<path d="M395 430 c-9 -15 3 -30 20 -24 7 3 11 12 8 20 -6 16 -19 18 -28 4z"/>
<path d="M2080 318 c0 -5 8 -8 18 -8 10 0 23 -5 29 -11 16 -16 37 -1 23 16
-12 14 -70 16 -70 3z"/>
<path d="M2132 268 c-18 -18 -14 -28 8 -28 11 0 20 6 20 14 0 21 -15 27 -28
14z"/>
<path d="M2057 263 c-9 -2 -15 -8 -12 -13 6 -10 45 -1 45 11 0 9 -4 10 -33 2z"/>
<path d="M1915 250 c3 -5 8 -10 11 -10 2 0 4 5 4 10 0 6 -5 10 -11 10 -5 0 -7
-4 -4 -10z"/>
<path d="M1990 249 c0 -5 5 -7 10 -4 6 3 10 8 10 11 0 2 -4 4 -10 4 -5 0 -10
-5 -10 -11z"/>
<path d="M2220 9001 c0 -11 5 -23 10 -26 6 -3 10 -14 10 -24 0 -25 47 -65 100
-85 25 -10 91 -42 147 -71 78 -41 103 -50 107 -39 3 7 12 11 20 8 9 -3 27 4
42 15 34 26 56 27 79 1 12 -13 29 -20 49 -18 17 1 41 -4 53 -10 30 -16 69 -15
87 3 8 8 20 15 27 15 7 0 3 10 -9 23 -12 13 -22 31 -22 40 0 9 -4 17 -10 17
-5 0 -10 -5 -10 -11 0 -5 -4 -7 -10 -4 -15 9 -12 23 5 27 12 2 11 11 -9 51
-14 26 -27 61 -31 77 l-7 30 -314 0 c-304 0 -314 -1 -314 -19z"/>
<path d="M7590 9010 c0 -5 6 -10 14 -10 8 0 18 5 21 10 3 6 -3 10 -14 10 -12
0 -21 -4 -21 -10z"/>
<path d="M7800 9009 c0 -25 35 -67 60 -72 14 -3 56 -36 93 -72 62 -61 70 -66
98 -60 21 5 44 1 70 -10 48 -22 58 -15 84 60 13 40 26 60 46 70 29 15 39 33
39 71 l0 24 -245 0 c-171 0 -245 -3 -245 -11z"/>
<path d="M8547 8896 c-9 -23 11 -62 25 -48 6 6 5 19 -5 37 -12 23 -15 25 -20
11z"/>
<path d="M7390 8793 c0 -32 4 -43 15 -43 19 0 20 40 0 66 -13 18 -14 16 -15
-23z"/>
<path d="M8821 8751 c-41 -7 -61 -33 -45 -58 14 -22 65 -32 170 -32 91 -1 111
10 100 54 -6 24 -10 25 -72 25 -36 0 -74 -5 -85 -11 -17 -9 -20 -7 -17 7 4 20
-6 23 -51 15z m-2 -52 c-16 -10 -23 -4 -14 10 3 6 11 8 17 5 6 -4 5 -9 -3 -15z"/>
<path d="M3099 8665 c-4 -5 -12 -57 -18 -115 -7 -58 -14 -115 -15 -127 -2 -17
2 -23 15 -23 14 0 19 12 24 63 7 72 3 217 -6 202z"/>
<path d="M7414 8603 c3 -10 14 -60 25 -111 22 -101 40 -146 41 -101 1 71 -42
229 -62 229 -5 0 -7 -8 -4 -17z"/>
<path d="M3440 8388 c0 -9 5 -20 10 -23 13 -8 13 5 0 25 -8 13 -10 13 -10 -2z"/>
<path d="M3450 8347 c0 -2 6 -17 14 -33 40 -83 92 -223 121 -327 16 -57 84
-213 126 -289 54 -100 85 -324 54 -385 -8 -15 -15 -36 -15 -46 0 -10 -5 -27
-10 -37 -8 -15 -5 -23 12 -40 26 -24 38 -26 38 -5 0 8 5 15 10 15 6 0 10 -9
10 -20 0 -24 20 -35 134 -72 81 -27 110 -31 266 -37 144 -6 183 -11 220 -28
106 -47 120 -51 120 -30 0 21 -72 94 -100 102 -14 4 -33 14 -42 22 -10 9 -27
13 -38 10 -30 -8 -98 18 -125 47 -16 17 -29 22 -49 19 -22 -5 -26 -2 -26 20 0
14 -7 27 -15 31 -8 3 -15 15 -15 27 0 12 -8 23 -20 26 -19 5 -29 23 -12 23 4
0 7 11 7 25 0 29 -4 31 -19 9 -10 -14 -14 -11 -23 20 -10 33 -9 36 8 36 27 0
24 28 -3 32 -16 2 -24 12 -29 35 -3 18 -11 39 -16 45 -5 7 -20 40 -33 73 -12
33 -29 74 -36 92 -8 17 -14 36 -14 42 0 6 -10 11 -21 11 -20 0 -21 4 -17 45 3
25 1 48 -4 51 -5 3 -4 12 3 20 7 9 9 26 4 47 -4 17 -9 48 -12 67 -7 45 -31 92
-43 85 -6 -4 -10 13 -10 39 0 49 -16 103 -28 92 -4 -4 -7 -85 -7 -179 0 -115
-4 -179 -12 -192 -10 -17 -11 -10 -8 40 3 50 3 54 -4 20 -5 -22 -9 -37 -11
-32 -4 13 -7 27 -9 41 0 8 -10 18 -21 21 -11 3 -20 14 -20 24 0 10 -20 39 -45
66 -36 37 -48 45 -59 36 -10 -9 -17 -6 -30 13 -9 14 -16 30 -16 36 0 18 -114
250 -122 250 -5 0 -8 -2 -8 -3z"/>
<path d="M3025 8321 c-22 -4 -46 -10 -52 -14 -17 -11 -16 -52 1 -66 21 -18
242 -27 261 -11 19 16 20 54 1 69 -17 14 -105 9 -148 -8 -27 -10 -40 1 -18 14
12 7 14 26 3 24 -5 -1 -26 -4 -48 -8z m-5 -62 c0 -5 -4 -9 -10 -9 -5 0 -10 7
-10 16 0 8 5 12 10 9 6 -3 10 -10 10 -16z"/>
<path d="M8647 8312 c-27 -29 -14 -83 32 -134 66 -72 86 -97 104 -128 18 -30
18 -30 -8 -40 -27 -10 -73 -9 -93 4 -23 14 -12 -9 14 -29 14 -11 39 -31 57
-45 75 -60 175 -130 199 -139 40 -15 141 -17 146 -2 6 18 -7 63 -17 57 -4 -3
-18 4 -31 16 -22 21 -23 22 -3 29 11 4 23 17 26 28 6 25 -10 39 -19 17 -11
-28 -24 -17 -24 19 0 25 -4 35 -16 35 -11 0 -15 -9 -14 -32 3 -50 2 -52 -20
-33 -22 20 -25 46 -10 75 11 21 4 25 -64 35 -39 6 -49 13 -63 39 -9 17 -23 36
-31 42 -12 9 -12 14 -2 31 8 12 10 28 5 39 -5 11 -7 24 -6 29 2 6 0 7 -4 3 -8
-8 -35 15 -35 30 0 6 -13 24 -29 41 -33 35 -70 40 -94 13z"/>
<path d="M3580 8130 c0 -5 5 -10 11 -10 5 0 7 5 4 10 -3 6 -8 10 -11 10 -2 0
-4 -4 -4 -10z"/>
<path d="M9245 8033 c3 -10 9 -47 11 -83 l6 -65 -22 25 c-11 14 -30 43 -42 65
-12 22 -23 34 -26 27 -6 -19 18 -72 49 -109 15 -17 30 -45 34 -61 3 -16 17
-40 30 -52 14 -13 27 -39 31 -59 15 -90 66 -207 115 -261 73 -81 182 -190 186
-186 8 8 -29 55 -48 61 -10 4 -19 11 -19 17 0 6 -12 26 -26 45 -15 20 -23 40
-20 51 6 19 -26 62 -45 62 -6 0 -8 9 -4 19 4 14 0 21 -15 26 -11 4 -19 12 -18
18 3 12 -10 50 -38 114 -8 17 -14 44 -14 61 0 16 -7 35 -16 42 -11 10 -14 23
-9 49 10 63 -8 124 -50 170 -40 43 -62 53 -50 24z"/>
<path d="M1457 7920 c-9 -22 -22 -40 -27 -40 -6 0 -18 -16 -26 -35 -9 -22 -20
-34 -32 -33 -46 4 -49 0 -46 -54 4 -57 -2 -47 -27 45 -7 26 -16 47 -19 47 -3
0 -15 -21 -27 -47 -19 -40 -22 -65 -22 -143 1 -100 -7 -136 -41 -170 -11 -11
-20 -31 -20 -45 0 -14 -4 -25 -10 -25 -5 0 -12 -11 -16 -25 -4 -15 -13 -25
-24 -25 -15 0 -18 -9 -18 -57 0 -90 -11 -118 -44 -107 -16 5 -20 3 -15 -8 3
-8 -1 -15 -8 -15 -9 0 -11 13 -7 44 3 27 1 43 -6 43 -6 0 -12 -15 -14 -32 -5
-56 -28 166 -30 295 l-2 122 -5 -115 c-7 -141 4 -338 24 -445 9 -44 19 -143
22 -220 4 -84 10 -130 14 -115 4 14 7 42 8 63 2 59 21 43 21 -18 0 -33 -4 -55
-11 -55 -7 0 -8 -11 -4 -31 5 -22 3 -34 -6 -40 -11 -8 -11 -12 4 -23 13 -10
17 -28 17 -72 1 -52 22 -137 43 -171 4 -6 4 -18 1 -26 -3 -8 -1 -18 5 -21 6
-4 8 -20 5 -35 -5 -24 -1 -32 21 -47 27 -18 58 -73 59 -104 0 -8 -4 -39 -8
-69 -5 -41 -10 -51 -19 -42 -13 13 -47 15 -47 2 0 -5 7 -17 16 -25 13 -13 14
-22 5 -46 -7 -22 -7 -30 1 -30 6 0 3 -9 -7 -20 -10 -11 -26 -20 -35 -20 -9 0
-22 -6 -29 -12 -10 -11 -17 -7 -37 17 l-25 30 3 -45 c2 -25 -1 -45 -7 -45 -5
0 -10 12 -10 28 0 15 -7 32 -15 37 -11 7 -14 36 -15 139 0 72 -3 131 -7 131
-12 0 -21 -238 -14 -415 4 -99 15 -299 26 -445 10 -146 22 -319 26 -385 4 -66
11 -131 16 -144 5 -14 14 -84 20 -157 10 -119 14 -133 32 -138 26 -7 36 1 36
28 0 12 4 26 9 31 4 6 11 22 15 38 5 21 3 27 -11 28 -14 0 -12 3 6 10 18 7 22
14 17 32 -5 21 -2 22 35 20 27 -1 42 3 46 13 3 7 16 14 30 14 13 0 21 -4 18
-10 -3 -6 -2 -10 4 -10 5 0 11 5 13 12 3 8 11 9 24 3 24 -10 30 -12 49 -14 8
0 14 -4 13 -8 -1 -5 9 -26 23 -48 60 -94 89 -235 48 -235 -11 0 -12 27 0 32
11 4 1 68 -11 68 -5 0 -6 -5 -3 -10 18 -29 -25 -66 -49 -43 -19 20 -76 10 -76
-13 0 -8 -7 -17 -15 -20 -22 -9 -58 -72 -51 -91 4 -9 2 -19 -4 -23 -6 -4 -12
-21 -12 -38 -1 -31 -18 -47 -18 -17 0 24 -19 17 -26 -10 -3 -14 -10 -25 -15
-25 -12 0 -39 43 -54 86 l-12 35 -21 -62 c-20 -59 -20 -66 -7 -108 9 -25 29
-92 45 -147 17 -56 36 -106 43 -111 6 -5 54 -26 104 -46 80 -32 104 -37 173
-37 75 0 80 1 80 21 0 12 -16 36 -35 54 -26 25 -31 34 -20 39 22 8 18 39 -7
55 -11 7 -42 16 -67 20 -41 5 -46 9 -46 31 0 16 6 25 15 25 28 0 23 41 -7 63
-28 20 -29 23 -23 82 6 58 18 79 45 80 12 0 25 -41 55 -167 17 -73 27 -97 47
-113 36 -28 60 -25 78 10 20 38 19 65 -5 180 -11 52 -25 136 -31 185 -16 138
-41 210 -103 292 -70 95 -80 134 -73 281 6 115 23 198 81 397 26 93 100 442
111 530 3 28 19 115 35 195 40 205 48 276 60 529 6 124 12 227 15 229 8 8 26
-11 44 -47 11 -20 27 -43 35 -50 10 -8 16 -29 16 -52 0 -22 5 -39 10 -39 6 0
10 10 10 23 0 13 5 28 12 35 7 7 8 12 3 12 -5 0 7 11 26 25 19 14 72 37 119
51 47 14 117 38 155 53 39 15 93 34 120 41 28 7 55 16 60 20 6 4 35 11 65 15
30 4 62 13 70 20 8 7 31 15 50 18 19 3 53 10 75 15 22 6 81 12 130 15 82 5 99
2 195 -28 58 -19 124 -39 148 -45 23 -6 42 -14 42 -18 0 -4 -62 -8 -138 -9
-311 -3 -741 -99 -1027 -228 -55 -25 -105 -45 -112 -45 -16 0 -18 -116 -3
-156 6 -14 13 -89 17 -165 5 -125 7 -136 20 -112 9 17 11 42 7 77 -6 46 -5 49
8 32 8 -10 20 -16 26 -12 7 4 12 2 12 -3 0 -20 32 -11 37 9 3 11 8 20 12 20 9
-1 111 -96 111 -105 0 -3 37 -47 83 -96 56 -61 89 -89 105 -89 15 0 22 -6 22
-20 0 -16 5 -19 23 -15 12 3 38 7 57 9 19 2 42 7 51 10 9 4 29 8 45 10 15 2
30 8 32 15 2 6 14 11 27 11 13 0 28 7 33 16 13 23 3 63 -19 75 -24 12 -24 27
-1 52 16 19 16 19 -3 13 -16 -5 -23 0 -32 24 -9 24 -17 30 -42 30 -16 0 -33
-4 -36 -10 -3 -5 -17 -10 -30 -10 -13 0 -27 -4 -30 -10 -10 -16 -35 -12 -35 5
0 9 -11 20 -24 25 -14 5 -30 18 -36 30 -6 12 -21 20 -35 20 -28 0 -33 15 -9
24 10 4 14 12 10 22 -4 9 -1 23 6 31 9 11 9 16 -3 24 -11 7 -12 11 -1 18 11 6
7 13 -14 30 -14 11 -23 21 -19 21 4 0 -3 9 -17 19 -20 16 -44 20 -126 23 -74
2 -102 6 -102 16 0 13 -33 29 -85 42 -28 7 -25 10 68 53 129 62 338 127 404
127 33 0 53 5 56 13 3 8 37 19 78 26 41 7 86 17 100 23 71 26 383 59 493 52
74 -4 99 -10 150 -37 41 -21 55 -33 43 -35 -10 -2 -37 9 -60 24 -32 21 -57 29
-106 32 -48 3 -62 1 -56 -7 4 -7 9 -10 12 -7 3 3 16 -11 30 -31 l24 -36 -23
-25 c-35 -40 -52 -52 -65 -47 -7 2 -17 -3 -21 -13 -13 -24 -13 -90 -2 -97 6
-3 10 -26 10 -50 0 -24 5 -47 10 -50 6 -4 8 -16 5 -26 -4 -11 -1 -26 5 -34 16
-19 4 -35 -26 -35 -16 0 -23 -4 -19 -11 4 -6 -2 -17 -14 -25 -12 -8 -21 -20
-21 -25 0 -15 23 -34 40 -34 8 0 15 -9 15 -20 0 -13 8 -21 23 -23 12 -2 22 -8
22 -13 0 -5 8 -9 19 -9 10 0 33 -5 50 -11 27 -10 32 -15 27 -35 -5 -17 -2 -24
8 -24 8 0 17 -7 20 -15 6 -16 40 -17 64 -1 9 5 18 1 27 -10 11 -16 11 -20 -2
-28 -9 -5 -19 -4 -25 2 -6 6 -17 8 -24 5 -11 -4 -11 -9 0 -31 7 -15 11 -33 9
-39 -3 -7 1 -13 7 -13 8 0 9 -10 5 -32 -6 -26 -5 -30 9 -25 18 7 86 -19 86
-33 0 -6 7 -10 15 -10 8 0 15 -4 15 -9 0 -5 18 -7 41 -4 35 5 41 3 46 -15 3
-12 13 -24 22 -26 119 -36 221 -57 253 -52 21 3 40 2 43 -4 4 -7 13 -6 27 1
15 8 32 8 62 0 47 -13 108 -11 118 4 4 6 5 19 2 30 -4 16 -3 17 5 5 10 -13 12
-13 21 0 24 37 0 136 -69 280 -39 82 -71 207 -86 330 l-7 55 38 -36 c180 -167
281 -203 545 -193 191 6 205 14 274 149 35 68 44 125 25 155 -7 11 -10 2 -10
-32 0 -26 -4 -50 -10 -53 -6 -4 -10 16 -10 52 0 47 4 61 20 73 18 13 20 26 20
120 -1 73 -5 110 -14 123 -13 17 -15 16 -22 -15 -4 -18 -7 -42 -6 -53 1 -14 0
-15 -5 -5 -3 8 -13 21 -21 29 -13 13 -16 13 -28 -4 -8 -10 -14 -22 -14 -25 0
-4 -37 -6 -82 -6 -61 1 -86 5 -95 16 -9 12 -17 13 -42 3 -18 -6 -33 -7 -37 -2
-10 17 -24 9 -24 -13 0 -19 -1 -20 -17 -5 -11 9 -32 14 -51 13 -24 -2 -36 3
-43 16 -11 20 -49 25 -49 7 0 -8 -4 -8 -12 -2 -19 15 -69 26 -100 24 -20 -2
-28 2 -28 14 0 8 -8 19 -17 22 -10 4 -22 12 -28 19 -10 12 -88 54 -130 70 -11
4 -34 8 -52 9 -40 3 -98 30 -115 54 -8 11 -25 21 -38 23 -15 2 -25 10 -25 19
0 9 -6 24 -14 33 -7 9 -10 16 -5 16 4 0 -9 15 -29 33 -20 18 -37 36 -37 41 0
5 -18 25 -39 45 -22 20 -51 60 -66 89 l-26 52 -55 0 c-40 0 -54 -4 -54 -14 0
-8 4 -17 8 -20 6 -3 8 -75 3 -107 -1 -3 -20 -12 -43 -18 -32 -10 -43 -10 -46
-2 -6 19 -54 59 -84 72 -15 6 -28 15 -28 20 0 5 -13 9 -28 9 -42 0 -90 27
-108 62 -17 32 -16 32 -111 12 -29 -6 -36 -1 -83 47 -35 38 -46 55 -35 57 21
5 19 15 -7 31 -16 10 -23 10 -26 2 -7 -20 -31 -11 -46 17 -16 31 -45 41 -200
67 -175 30 -168 19 22 -33 123 -34 147 -44 184 -78 48 -43 92 -109 83 -124 -3
-6 -13 -10 -21 -10 -27 0 -14 -15 45 -53 32 -20 66 -46 75 -56 15 -17 14 -19
-24 -36 -40 -18 -41 -18 -86 5 -25 13 -53 36 -62 52 -9 15 -21 28 -27 28 -6 0
-17 22 -25 48 -11 43 -15 48 -36 44 -15 -3 -24 -11 -24 -23 0 -11 -7 -19 -15
-19 -9 0 -12 6 -9 15 4 8 1 15 -5 15 -6 0 -11 -6 -11 -14 0 -8 -4 -18 -10 -21
-6 -3 -7 1 -4 9 3 9 1 16 -5 16 -6 0 -11 -7 -11 -16 0 -11 -6 -13 -22 -8 -32
11 -79 11 -108 1 -14 -5 -39 -9 -57 -8 -19 0 -33 -5 -37 -15 -3 -8 -10 -12
-16 -9 -5 3 -24 0 -42 -8 -70 -31 -97 -39 -130 -37 -56 3 -68 1 -68 -15 0 -9
-6 -15 -12 -14 -7 1 -22 -1 -33 -5 -11 -5 -39 -15 -63 -25 -24 -9 -51 -24 -62
-33 -10 -9 -31 -20 -47 -24 -15 -4 -39 -18 -52 -31 -14 -13 -30 -22 -37 -19
-7 3 -16 -4 -19 -15 -4 -10 -12 -19 -19 -19 -6 0 -13 -14 -14 -32 -4 -46 -12
-48 -12 -2 0 38 0 38 -16 15 -15 -21 -15 -26 0 -65 9 -23 16 -48 16 -56 -1
-27 -49 78 -77 167 l-27 88 3 315 c1 173 6 333 10 357 10 54 1 55 -22 3z m528
-609 c3 -5 1 -12 -5 -16 -5 -3 -10 1 -10 9 0 18 6 21 15 7z m688 -109 c4 -22
17 -48 32 -62 48 -45 0 -55 -64 -13 -23 15 -41 30 -41 35 0 4 -12 8 -26 8 -14
0 -34 5 -45 11 -16 8 -18 13 -8 25 13 16 85 19 94 4 10 -16 25 -11 25 8 0 21
9 34 20 27 4 -3 10 -22 13 -43z m-1604 -279 c1 -23 -3 -44 -9 -48 -6 -4 -10 5
-11 22 -1 29 -3 40 -15 82 -7 25 -7 25 13 5 12 -12 20 -34 22 -61z m3561 -78
c0 -19 -4 -35 -10 -35 -11 0 -13 30 -4 54 10 25 14 19 14 -19z m-62 -25 c-2
-6 -8 -6 -18 0 -13 9 -13 11 0 20 15 10 25 0 18 -20z m-1253 -20 c79 -14 133
-32 75 -25 -70 8 -146 24 -170 34 l-25 11 25 -4 c14 -2 57 -9 95 -16z m-365
-231 c0 -17 -4 -28 -10 -24 -5 3 -10 17 -10 31 0 13 5 24 10 24 6 0 10 -14 10
-31z m-1140 -9 c13 -8 13 -10 -2 -10 -9 0 -18 -6 -20 -12 -3 -7 -7 -2 -10 10
-7 24 6 29 32 12z m2767 -82 c-3 -8 -6 -5 -6 6 -1 11 2 17 5 13 3 -3 4 -12 1
-19z m-1400 -398 c-1 -16 -6 -30 -10 -30 -12 0 -20 28 -13 45 10 26 25 16 23
-15z m-2053 -176 c3 -8 2 -12 -4 -9 -6 3 -10 10 -10 16 0 14 7 11 14 -7z m-54
-34 c0 -5 -4 -10 -10 -10 -5 0 -10 5 -10 10 0 6 5 10 10 10 6 0 10 -4 10 -10z
m5 -76 c0 -10 -8 -20 -17 -22 -18 -3 -26 27 -11 42 12 11 28 0 28 -20z m30
-196 c5 4 5 -1 2 -10 -17 -48 -18 -85 -3 -91 9 -4 16 -2 16 3 0 6 5 10 10 10
11 0 14 -63 3 -74 -4 -3 -8 -30 -10 -60 -3 -45 1 -57 21 -79 20 -22 24 -36 24
-96 1 -39 -3 -71 -8 -71 -13 0 -40 -59 -29 -66 5 -3 9 -15 9 -26 0 -11 8 -27
18 -34 15 -11 11 -13 -27 -11 -35 1 -45 6 -54 25 -7 14 -17 22 -27 19 -30 -8
-40 29 -45 175 -3 79 -7 154 -10 168 -3 14 -1 48 5 75 l9 50 -2 -46 c-1 -33 2
-45 10 -42 8 3 10 16 6 34 -3 17 0 35 8 45 11 13 10 17 -4 25 -10 6 -17 22
-17 37 0 19 3 23 9 13 13 -20 51 -4 51 21 0 16 3 18 13 9 8 -6 18 -7 22 -3z
m195 -706 c0 -5 -7 -9 -15 -9 -8 0 -12 4 -9 9 3 4 9 8 15 8 5 0 9 -4 9 -8z
m-220 -344 c0 -5 -4 -8 -10 -8 -5 0 -10 10 -10 23 0 18 2 19 10 7 5 -8 10 -18
10 -22z m315 -128 c3 -5 1 -10 -4 -10 -6 0 -11 5 -11 10 0 6 2 10 4 10 3 0 8
-4 11 -10z m45 -129 c0 -5 2 -24 5 -42 l5 -34 -14 35 c-18 43 -19 50 -6 50 6
0 10 -4 10 -9z"/>
<path d="M1010 5370 c0 -19 3 -21 12 -12 9 9 9 15 0 24 -9 9 -12 7 -12 -12z"/>
<path d="M1040 5370 c0 -5 7 -10 16 -10 8 0 12 5 9 10 -3 6 -10 10 -16 10 -5
0 -9 -4 -9 -10z"/>
<path d="M1065 5250 c-19 -7 -19 -8 -2 -15 19 -8 31 -2 26 13 -2 5 -13 6 -24
2z"/>
<path d="M1031 5154 c0 -11 3 -14 6 -6 3 7 2 16 -1 19 -3 4 -6 -2 -5 -13z"/>
<path d="M1070 5111 c0 -6 5 -13 10 -16 6 -3 10 1 10 9 0 9 -4 16 -10 16 -5 0
-10 -4 -10 -9z"/>
<path d="M3750 7950 c0 -5 5 -10 11 -10 5 0 7 5 4 10 -3 6 -8 10 -11 10 -2 0
-4 -4 -4 -10z"/>
<path d="M2800 7896 c0 -9 6 -16 13 -16 6 0 3 -6 -7 -12 -14 -8 -24 -8 -37 1
-11 6 -32 11 -49 11 -45 0 -38 -25 28 -95 143 -153 172 -188 172 -206 0 -10 5
-19 10 -19 6 0 10 -9 10 -20 0 -20 -1 -20 -37 3 -21 13 -60 34 -88 48 -27 13
-52 26 -55 29 -15 16 -63 41 -68 36 -8 -9 26 -37 78 -65 25 -13 52 -30 60 -37
17 -14 134 -73 194 -98 42 -18 84 -20 105 -7 7 5 28 4 48 -2 31 -10 37 -9 49
8 19 26 18 34 -11 47 -15 7 -24 17 -21 25 3 7 1 13 -5 13 -6 0 -7 5 -4 10 3 6
-1 10 -10 10 -13 0 -16 6 -11 25 9 36 -13 65 -56 72 -23 3 -38 11 -38 20 0 22
-26 26 -60 8 -40 -20 -63 -13 -116 38 -33 32 -40 43 -29 51 7 6 15 30 18 52 5
43 5 44 -75 82 -5 2 -8 -3 -8 -12z m350 -278 c0 -5 -7 -7 -16 -4 -8 3 -12 2
-9 -3 3 -5 1 -12 -5 -16 -5 -3 -10 3 -10 14 0 19 18 32 33 24 4 -2 7 -9 7 -15z"/>
<path d="M6802 7750 c0 -14 2 -19 5 -12 2 6 2 18 0 25 -3 6 -5 1 -5 -13z"/>
<path d="M8147 7731 c-4 -16 -14 -30 -25 -33 -19 -5 -152 11 -251 31 -118 24
-86 8 100 -50 144 -45 198 -49 217 -19 10 17 9 27 -8 60 -11 22 -22 40 -24 40
-2 0 -6 -13 -9 -29z"/>
<path d="M9135 7708 c10 -32 15 -35 25 -18 13 20 7 34 -14 38 -15 3 -17 -1
-11 -20z"/>
<path d="M8360 7632 c0 -5 7 -23 16 -41 20 -41 44 -27 28 16 -9 26 -44 46 -44
25z"/>
<path d="M9620 7256 c0 -2 8 -10 18 -17 15 -13 16 -12 3 4 -13 16 -21 21 -21
13z"/>
<path d="M662 7220 c0 -14 2 -19 5 -12 2 6 2 18 0 25 -3 6 -5 1 -5 -13z"/>
<path d="M9660 7210 c0 -5 5 -10 11 -10 5 0 7 5 4 10 -3 6 -8 10 -11 10 -2 0
-4 -4 -4 -10z"/>
<path d="M9367 7160 c6 -21 60 -66 69 -57 3 3 2 21 -1 41 -7 33 -10 36 -40 36
-28 0 -32 -3 -28 -20z"/>
<path d="M673 7120 c0 -25 2 -35 4 -22 2 12 2 32 0 45 -2 12 -4 2 -4 -23z"/>
<path d="M4547 7132 c3 -12 9 -25 14 -28 14 -8 11 10 -6 32 -13 18 -14 18 -8
-4z"/>
<path d="M9760 7143 c0 -7 36 -26 103 -55 9 -4 17 -5 17 -3 0 3 -27 18 -60 35
-33 17 -60 27 -60 23z"/>
<path d="M4578 7032 c-4 -12 -2 -24 2 -27 5 -3 12 -19 15 -36 4 -19 11 -27 16
-22 6 6 3 28 -9 58 -16 40 -20 44 -24 27z"/>
<path d="M8456 7021 c-3 -4 6 -6 19 -3 14 2 25 6 25 8 0 8 -39 4 -44 -5z"/>
<path d="M693 6945 c0 -33 2 -45 4 -27 2 18 2 45 0 60 -2 15 -4 0 -4 -33z"/>
<path d="M9970 6991 c0 -5 5 -13 10 -16 6 -3 10 -2 10 4 0 5 -4 13 -10 16 -5
3 -10 2 -10 -4z"/>
<path d="M2798 6953 c6 -2 18 -2 25 0 6 3 1 5 -13 5 -14 0 -19 -2 -12 -5z"/>
<path d="M2330 6890 c-12 -8 -12 -10 5 -9 11 0 29 4 40 9 18 8 18 9 -5 9 -14
0 -32 -4 -40 -9z"/>
<path d="M702 6855 c0 -16 2 -22 5 -12 2 9 2 23 0 30 -3 6 -5 -1 -5 -18z"/>
<path d="M1766 6715 c-4 -13 -2 -14 14 -5 23 13 26 20 6 20 -8 0 -16 -7 -20
-15z"/>
<path d="M723 6680 c0 -25 2 -35 4 -22 2 12 2 32 0 45 -2 12 -4 2 -4 -23z"/>
<path d="M731 6565 c-1 -64 6 -105 19 -105 5 0 6 8 4 18 -3 9 -9 46 -13 82
l-8 65 -2 -60z"/>
<path d="M991 6495 c-1 -11 -4 -31 -6 -45 l-6 -25 11 25 c6 13 9 33 7 45 -4
19 -4 19 -6 0z"/>
<path d="M753 6415 c0 -22 2 -30 4 -17 2 12 2 30 0 40 -3 9 -5 -1 -4 -23z"/>
<path d="M971 6384 c0 -11 3 -14 6 -6 3 7 2 16 -1 19 -3 4 -6 -2 -5 -13z"/>
<path d="M772 6230 c0 -30 3 -64 8 -75 11 -26 11 56 0 100 -6 25 -8 20 -8 -25z"/>
<path d="M787 6063 c11 -127 23 -155 18 -43 -3 58 -5 106 -5 108 0 1 -4 2 -10
2 -5 0 -7 -27 -3 -67z"/>
<path d="M1715 6068 c-22 -60 -32 -115 -29 -155 3 -26 5 -94 7 -150 2 -93 8
-125 22 -111 3 3 1 17 -4 31 -5 14 -7 28 -4 31 4 3 7 63 8 134 1 70 5 151 8
180 5 50 2 66 -8 40z"/>
<path d="M1072 5968 c3 -7 15 -15 27 -16 16 -3 22 1 19 10 -3 7 -15 15 -27 16
-16 3 -22 -1 -19 -10z"/>
<path d="M761 5924 c0 -11 3 -14 6 -6 3 7 2 16 -1 19 -3 4 -6 -2 -5 -13z"/>
<path d="M808 5873 c8 -94 15 -133 23 -127 5 3 7 15 5 27 -3 12 -8 48 -11 80
-7 62 -22 80 -17 20z"/>
<path d="M776 5751 c-3 -5 1 -11 9 -14 9 -4 12 -1 8 9 -6 16 -10 17 -17 5z"/>
<path d="M819 5688 c-3 -21 -3 -35 0 -32 3 2 11 -8 18 -23 12 -26 13 -26 7 -3
-3 14 -9 41 -13 60 l-7 35 -5 -37z"/>
<path d="M8335 5696 c-30 -30 -31 -36 -6 -62 10 -11 21 -30 25 -41 6 -19 8
-20 40 -4 24 11 36 25 40 45 7 33 0 44 -43 69 -31 18 -31 18 -56 -7z"/>
<path d="M848 5564 c-6 -53 3 -144 14 -144 8 0 2 168 -7 178 -2 2 -5 -14 -7
-34z"/>
<path d="M1910 5522 c0 -14 8 -19 32 -20 l33 -1 -25 19 c-31 25 -40 25 -40 2z"/>
<path d="M807 5504 c-5 -18 -3 -50 2 -75 6 -24 10 -51 8 -59 -1 -8 3 -16 8
-18 14 -4 19 47 6 72 -6 12 -12 41 -13 66 -3 43 -3 44 -11 14z"/>
<path d="M2402 5513 c5 -7 14 -10 19 -7 16 10 9 23 -10 21 -15 -1 -17 -4 -9
-14z"/>
<path d="M2590 5500 c8 -5 22 -9 30 -9 10 0 8 3 -5 9 -27 12 -43 12 -25 0z"/>
<path d="M2292 5488 c6 -18 28 -21 28 -4 0 9 -7 16 -16 16 -9 0 -14 -5 -12
-12z"/>
<path d="M3675 5450 c-3 -5 -1 -10 4 -10 6 0 11 5 11 10 0 6 -2 10 -4 10 -3 0
-8 -4 -11 -10z"/>
<path d="M8060 5450 c0 -7 24 -20 36 -20 13 0 1 19 -16 23 -11 3 -20 2 -20 -3z"/>
<path d="M2680 5380 c0 -5 5 -10 10 -10 6 0 10 5 10 10 0 6 -4 10 -10 10 -5 0
-10 -4 -10 -10z"/>
<path d="M810 5288 c0 -33 23 -79 34 -67 3 3 2 25 -2 49 -9 54 -32 67 -32 18z"/>
<path d="M2766 5271 c-3 -5 3 -11 14 -14 13 -3 20 0 20 9 0 15 -26 19 -34 5z"/>
<path d="M10791 4480 c-1 -96 -6 -193 -11 -215 -5 -22 -12 -146 -15 -274 -4
-129 -8 -238 -11 -243 -6 -9 -28 -536 -26 -603 3 -62 -16 -202 -30 -232 -8
-17 -8 -26 2 -38 16 -19 15 -121 -2 -340 -6 -77 -11 -187 -10 -244 1 -58 -3
-110 -7 -115 -17 -22 -10 -149 10 -195 11 -24 23 -40 26 -37 4 3 8 50 10 104
1 53 10 304 18 557 16 507 21 627 36 945 12 243 24 1042 16 1080 -2 14 -5 -54
-6 -150z"/>
<path d="M1406 4585 c4 -8 8 -15 10 -15 2 0 4 7 4 15 0 8 -4 15 -10 15 -5 0
-7 -7 -4 -15z"/>
<path d="M1397 4543 c-11 -10 -8 -53 3 -53 6 0 10 14 10 30 0 31 -2 35 -13 23z"/>
<path d="M1031 4384 c0 -11 3 -14 6 -6 3 7 2 16 -1 19 -3 4 -6 -2 -5 -13z"/>
<path d="M1137 4328 c-4 -12 -1 -28 6 -36 9 -12 13 -9 19 14 4 15 5 31 2 36
-9 15 -22 8 -27 -14z"/>
<path d="M10633 3765 c0 -22 2 -30 4 -17 2 12 2 30 0 40 -3 9 -5 -1 -4 -23z"/>
<path d="M9055 3530 c-19 -8 -19 -9 3 -9 12 -1 22 4 22 9 0 6 -1 10 -2 9 -2 0
-12 -4 -23 -9z"/>
<path d="M10612 3150 c0 -19 2 -27 5 -17 2 9 2 25 0 35 -3 9 -5 1 -5 -18z"/>
<path d="M10794 2800 c0 -69 1 -97 3 -62 2 34 2 90 0 125 -2 34 -3 6 -3 -63z"/>
<path d="M10602 2790 c0 -19 2 -27 5 -17 2 9 2 25 0 35 -3 9 -5 1 -5 -18z"/>
<path d="M10594 2490 c0 -52 1 -74 3 -47 2 26 2 68 0 95 -2 26 -3 4 -3 -48z"/>
<path d="M3752 2538 c-14 -14 -16 -28 -3 -28 9 0 24 30 18 36 -2 2 -9 -2 -15
-8z"/>
<path d="M10771 2384 c0 -11 3 -14 6 -6 3 7 2 16 -1 19 -3 4 -6 -2 -5 -13z"/>
<path d="M10587 2383 c-10 -9 -8 -133 1 -133 6 0 12 139 6 140 0 0 -4 -3 -7
-7z"/>
<path d="M5409 2339 c-9 -6 8 -9 45 -9 33 0 57 2 55 4 -10 9 -88 13 -100 5z"/>
<path d="M5288 2333 c7 -3 16 -2 19 1 4 3 -2 6 -13 5 -11 0 -14 -3 -6 -6z"/>
<path d="M1740 2300 c0 -5 5 -10 10 -10 6 0 10 5 10 10 0 6 -4 10 -10 10 -5 0
-10 -4 -10 -10z"/>
<path d="M1888 2303 c6 -2 18 -2 25 0 6 3 1 5 -13 5 -14 0 -19 -2 -12 -5z"/>
<path d="M10654 2246 c-3 -8 -1 -23 5 -33 9 -15 10 -13 11 15 0 34 -7 42 -16
18z"/>
<path d="M10578 2144 c-5 -4 -8 -21 -8 -38 0 -21 3 -27 11 -19 6 6 9 23 7 38
-2 15 -6 23 -10 19z"/>
<path d="M853 2113 c9 -2 25 -2 35 0 9 3 1 5 -18 5 -19 0 -27 -2 -17 -5z"/>
<path d="M1358 2113 c7 -3 16 -2 19 1 4 3 -2 6 -13 5 -11 0 -14 -3 -6 -6z"/>
<path d="M268 2103 c7 -3 16 -2 19 1 4 3 -2 6 -13 5 -11 0 -14 -3 -6 -6z"/>
<path d="M10567 2034 c-4 -4 -7 -14 -7 -23 0 -11 3 -12 11 -4 6 6 10 16 7 23
-2 6 -7 8 -11 4z"/>
<path d="M10735 2020 c3 -5 19 -10 36 -10 16 0 29 5 29 10 0 6 -16 10 -36 10
-21 0 -33 -4 -29 -10z"/>
<path d="M7185 2013 c-22 -2 -44 -9 -49 -14 -6 -5 45 -9 135 -10 79 0 188 -1
242 -2 53 -1 97 1 97 6 0 7 -21 9 -145 12 -38 0 -108 4 -155 7 -47 3 -103 3
-125 1z"/>
<path d="M9363 1973 c9 -2 25 -2 35 0 9 3 1 5 -18 5 -19 0 -27 -2 -17 -5z"/>
<path d="M9100 1931 c19 -5 244 -11 500 -15 256 -3 607 -8 780 -11 188 -2 291
-1 255 4 -33 5 -269 11 -525 15 -256 3 -595 8 -755 11 -173 3 -276 1 -255 -4z"/>
<path d="M9020 1901 c0 -10 -2 -34 -5 -52 -4 -28 -4 -30 3 -9 18 53 22 80 12
80 -5 0 -10 -8 -10 -19z"/>
<path d="M1760 1860 c0 -13 11 -13 30 0 12 8 11 10 -7 10 -13 0 -23 -4 -23
-10z"/>
<path d="M1908 1863 c6 -2 18 -2 25 0 6 3 1 5 -13 5 -14 0 -19 -2 -12 -5z"/>
<path d="M1368 1853 c7 -3 16 -2 19 1 4 3 -2 6 -13 5 -11 0 -14 -3 -6 -6z"/>
<path d="M8172 1769 c11 -83 19 -87 14 -9 -2 35 -7 65 -13 67 -6 2 -7 -18 -1
-58z"/>
<path d="M9001 1784 c0 -11 3 -14 6 -6 3 7 2 16 -1 19 -3 4 -6 -2 -5 -13z"/>
<path d="M9095 1580 c-90 -5 -97 -6 -72 -18 22 -9 45 -9 110 1 105 16 89 23
-38 17z"/>
<path d="M9325 1573 c-49 -7 -54 -23 -7 -23 31 0 42 4 42 15 0 8 -1 14 -2 14
-2 -1 -16 -4 -33 -6z"/>
<path d="M9405 1560 c-3 -6 6 -10 22 -11 15 0 48 -2 73 -3 104 -8 188 -8 199
-2 7 5 49 7 94 6 193 -6 661 3 592 11 -104 11 -973 10 -980 -1z"/>
<path d="M10320 1520 c-13 -8 -12 -10 3 -10 9 0 17 5 17 10 0 12 -1 12 -20 0z"/>
<path d="M9634 1446 c-9 -38 1 -55 33 -55 15 1 64 0 109 -1 84 -1 137 7 129
20 -5 8 -124 29 -192 34 -24 2 -49 9 -57 16 -13 10 -16 7 -22 -14z"/>
<path d="M9239 1406 c16 -19 44 -21 39 -3 -3 6 -15 14 -28 15 -21 3 -22 2 -11
-12z"/>
<path d="M9090 1360 c0 -5 18 -10 39 -10 22 0 43 5 46 10 4 6 -12 10 -39 10
-25 0 -46 -4 -46 -10z"/>
<path d="M8938 1353 c-2 -5 -5 -22 -7 -40 -2 -27 0 -31 18 -26 12 3 27 0 35
-6 8 -6 32 -9 59 -6 31 4 56 1 76 -10 36 -18 77 -20 84 -2 4 10 6 10 6 0 1
-20 18 -15 24 7 6 25 24 26 31 3 5 -15 21 -18 101 -21 52 -2 100 0 107 4 7 4
45 7 86 7 69 -1 73 0 70 21 -3 19 -9 21 -73 22 -172 2 -468 16 -488 23 -12 4
-39 6 -60 5 -26 -2 -40 2 -44 12 -6 15 -19 19 -25 7z"/>
<path d="M9218 1353 c7 -3 16 -2 19 1 4 3 -2 6 -13 5 -11 0 -14 -3 -6 -6z"/>
<path d="M8922 1193 c3 -24 -1 -28 -22 -29 -41 -2 -43 -3 -31 -18 8 -10 28
-13 59 -11 26 1 62 3 80 4 17 0 32 5 32 11 0 5 -7 7 -15 4 -23 -9 -47 14 -35
36 12 22 1 34 -17 18 -10 -8 -17 -8 -25 0 -20 20 -29 14 -26 -15z"/>
<path d="M9010 1210 c0 -5 7 -10 16 -10 8 0 12 5 9 10 -3 6 -10 10 -16 10 -5
0 -9 -4 -9 -10z"/>
<path d="M9293 1153 c-78 -6 -64 -23 20 -25 120 -3 179 3 166 16 -8 8 -130 14
-186 9z"/>
<path d="M9068 1143 c7 -3 16 -2 19 1 4 3 -2 6 -13 5 -11 0 -14 -3 -6 -6z"/>
<path d="M9558 1133 c7 -3 16 -2 19 1 4 3 -2 6 -13 5 -11 0 -14 -3 -6 -6z"/>
<path d="M8846 1033 c-10 -10 -7 -103 4 -103 6 0 10 11 10 25 0 14 4 25 8 25
11 0 12 -72 1 -90 -7 -13 -8 -12 -9 3 0 21 -16 22 -24 1 -10 -26 -7 -144 4
-144 5 0 9 -10 8 -23 -1 -12 9 -45 22 -72 l24 -49 14 34 c10 25 16 31 21 20 4
-11 15 -14 41 -9 25 4 30 8 19 13 -9 4 -22 6 -30 4 -8 -2 -14 5 -14 17 0 13 5
19 15 16 42 -10 160 -13 160 -3 0 6 -21 14 -47 17 -27 3 -70 10 -98 15 -45 8
-43 9 27 5 43 -2 80 0 83 5 3 4 43 6 89 4 66 -4 87 -1 99 11 21 21 27 19 27
-10 0 -19 -7 -26 -27 -31 -49 -10 -49 -12 0 -13 41 -1 47 2 47 19 0 13 7 20
19 20 10 0 21 9 24 20 3 11 11 20 18 20 10 0 10 -3 1 -12 -18 -18 -15 -27 8
-21 22 6 29 -22 8 -30 -7 -2 -10 -8 -6 -12 4 -4 15 -2 24 6 9 7 23 14 32 16 9
1 22 9 28 17 7 10 26 16 48 16 20 0 36 4 36 9 0 5 8 12 18 14 9 2 -11 4 -45 4
-35 0 -66 2 -69 6 -4 4 -13 2 -21 -5 -10 -8 -12 -8 -8 3 4 12 -22 14 -155 12
-88 -1 -160 2 -160 7 0 13 28 19 102 21 53 2 65 5 61 17 -5 11 -1 13 18 7 22
-7 22 -7 6 10 -15 15 -39 17 -174 17 -89 0 -150 4 -142 8 7 5 10 12 7 16 -11
10 -40 -4 -33 -16 10 -16 -5 -12 -23 7 -16 16 -17 16 -20 0 -5 -27 -22 -20
-22 8 0 15 5 25 13 24 19 -3 67 12 67 22 0 5 -11 11 -25 15 -15 4 -25 13 -25
23 0 27 -11 32 -28 14 -14 -14 -16 -13 -23 5 -9 23 -23 34 -33 25z"/>
<path d="M9012 948 c3 -7 15 -15 27 -16 16 -3 22 1 19 10 -3 7 -15 15 -27 16
-16 3 -22 -1 -19 -10z"/>
<path d="M9356 865 c4 -9 19 -15 38 -15 l31 1 -25 14 c-33 19 -51 19 -44 0z"/>
<path d="M9493 813 c9 -2 25 -2 35 0 9 3 1 5 -18 5 -19 0 -27 -2 -17 -5z"/>
<path d="M9580 810 c0 -12 8 -12 35 0 18 8 17 9 -7 9 -16 1 -28 -3 -28 -9z"/>
<path d="M9697 760 c-3 -11 -2 -22 1 -24 11 -6 72 6 72 14 0 5 -9 6 -20 3 -12
-3 -22 1 -26 11 -8 22 -21 20 -27 -4z"/>
<path d="M9983 767 c-3 -5 -21 -7 -41 -6 -21 1 -54 2 -75 1 -52 -3 -44 -26 9
-29 21 -1 54 -4 71 -7 24 -3 35 0 42 12 8 14 13 15 29 5 11 -6 23 -8 28 -3 5
5 24 10 43 12 19 2 36 8 38 13 4 12 -137 14 -144 2z"/>
<path d="M10252 773 c-6 -2 -10 -9 -6 -14 3 -5 -4 -9 -15 -9 -26 0 -36 -17
-14 -24 10 -3 104 -5 208 -5 105 0 206 -3 225 -7 19 -4 60 -8 90 -8 55 -1 55
-1 58 30 3 28 0 32 -27 36 -16 2 -38 0 -47 -5 -9 -5 -43 -7 -74 -4 -32 3 -63
1 -71 -4 -8 -4 -16 -4 -20 3 -8 12 -37 14 -114 4 -44 -5 -56 -5 -45 4 12 8 6
10 -25 8 -26 -2 -39 -8 -37 -15 2 -14 -24 -18 -30 -4 -4 11 -40 21 -56 14z
m471 -38 c-3 -9 -8 -14 -10 -11 -3 3 -2 9 2 15 9 16 15 13 8 -4z"/>
<path d="M9180 700 c20 -13 33 -13 25 0 -3 6 -14 10 -23 10 -15 0 -15 -2 -2
-10z"/>
<path d="M5515 620 c3 -5 8 -10 11 -10 2 0 4 5 4 10 0 6 -5 10 -11 10 -5 0 -7
-4 -4 -10z"/>
<path d="M8900 585 c0 -5 9 -21 20 -35 11 -14 20 -20 20 -15 0 6 -9 21 -20 35
-11 14 -20 21 -20 15z"/>
<path d="M4515 560 c-4 -6 6 -10 22 -10 22 0 25 2 13 10 -19 12 -27 12 -35 0z"/>
<path d="M4570 560 c0 -5 7 -10 15 -10 8 0 15 5 15 10 0 6 -7 10 -15 10 -8 0
-15 -4 -15 -10z"/>
<path d="M7430 560 c0 -5 9 -10 21 -10 11 0 17 5 14 10 -3 6 -13 10 -21 10 -8
0 -14 -4 -14 -10z"/>
<path d="M7505 560 c-3 -5 -1 -10 4 -10 6 0 11 5 11 10 0 6 -2 10 -4 10 -3 0
-8 -4 -11 -10z"/>
<path d="M5186 533 c-3 -3 -3 -10 0 -14 7 -12 44 -12 44 0 0 10 -36 21 -44 14z"/>
<path d="M7407 514 c-15 -15 -6 -24 23 -24 17 0 30 5 30 10 0 6 -4 10 -9 10
-5 0 -16 2 -23 5 -8 3 -17 2 -21 -1z"/>
<path d="M4840 488 c0 -14 21 -19 55 -12 49 9 44 21 -10 20 -25 -1 -45 -4 -45
-8z"/>
<path d="M5298 493 c7 -3 16 -2 19 1 4 3 -2 6 -13 5 -11 0 -14 -3 -6 -6z"/>
<path d="M4328 463 c7 -3 16 -2 19 1 4 3 -2 6 -13 5 -11 0 -14 -3 -6 -6z"/>
<path d="M6340 420 c0 -12 -10 -51 -22 -86 -31 -90 -40 -85 186 -108 26 -3 68
-1 92 4 25 6 85 13 135 17 51 3 85 10 77 14 -7 4 -10 11 -6 14 3 4 15 0 27 -7
17 -10 25 -10 41 0 15 9 26 10 40 2 17 -9 20 -8 20 9 0 23 16 36 25 21 5 -7
11 -5 19 6 10 13 30 18 77 20 120 5 184 12 182 21 -2 8 -76 21 -141 24 -26 2
-30 4 -17 11 9 5 33 9 53 7 20 -1 64 -1 97 1 l60 2 -40 9 c-59 13 -126 18
-360 24 -115 3 -217 8 -228 11 -10 3 -24 0 -32 -6 -11 -9 -23 -9 -46 -1 -43
15 -88 14 -94 -1 -4 -10 -57 -17 -67 -8 -2 1 -10 3 -18 5 -8 2 -25 7 -37 11
-19 5 -23 2 -23 -16z"/>
<path d="M7320 400 c-32 -10 -31 -11 70 -15 47 -2 105 -7 130 -10 43 -6 44 -5
19 8 -31 17 -184 29 -219 17z"/>
<path d="M9015 380 c4 -14 12 -29 17 -35 7 -7 8 -2 3 15 -4 14 -12 30 -17 35
-7 7 -8 2 -3 -15z"/>
<path d="M7373 332 c-30 -5 -29 -14 3 -29 21 -10 26 -9 31 3 8 20 -7 31 -34
26z"/>
<path d="M5800 211 c0 -10 29 -16 54 -12 4 1 13 -3 20 -8 7 -6 17 -6 26 -1 8
5 19 6 25 3 7 -4 7 -2 0 5 -15 16 -125 28 -125 13z"/>
<path d="M6038 213 c7 -3 16 -2 19 1 4 3 -2 6 -13 5 -11 0 -14 -3 -6 -6z"/>
<path d="M8961 198 c-1 -32 8 -58 20 -58 13 0 10 20 -6 55 l-13 30 -1 -27z"/>
<path d="M9050 211 c0 -6 4 -13 10 -16 6 -3 7 1 4 9 -7 18 -14 21 -14 7z"/>
<path d="M6447 203 c-3 -3 -3 -11 0 -19 7 -20 -24 -18 -35 3 -9 14 -11 14 -22
-6 -7 -14 -17 -20 -27 -17 -13 6 -14 4 -3 -9 10 -12 10 -19 2 -27 -19 -19 -14
-28 14 -26 21 2 24 6 19 27 -5 21 -3 23 17 17 13 -3 26 -6 31 -6 4 0 7 -7 7
-15 0 -8 5 -15 11 -15 5 0 23 -14 39 -32 16 -17 33 -29 37 -25 11 11 -32 62
-52 62 -10 0 -20 6 -22 13 -5 13 -5 13 50 16 45 3 54 11 37 31 -10 12 -16 13
-27 4 -11 -10 -20 -8 -42 9 -16 11 -31 18 -34 15z"/>
<path d="M6120 190 c0 -5 7 -10 16 -10 8 0 12 5 9 10 -3 6 -10 10 -16 10 -5 0
-9 -4 -9 -10z"/>
<path d="M5730 160 c0 -18 7 -20 70 -20 44 0 70 4 70 11 0 6 -6 9 -12 6 -7 -2
-35 2 -63 9 -65 18 -65 18 -65 -6z"/>
<path d="M5930 164 c0 -7 -12 -15 -27 -17 -16 -2 50 -3 145 -2 95 1 176 5 179
9 4 3 -14 7 -38 7 -24 1 -57 3 -74 5 -92 11 -185 10 -185 -2z"/>
<path d="M2377 75 c-22 -70 -21 -75 3 -75 13 0 20 7 20 19 0 10 3 39 6 65 9
64 -8 58 -29 -9z"/>
<path d="M2592 99 c-5 -13 -12 -41 -16 -62 -6 -32 -4 -37 13 -37 15 0 20 9 26
51 8 58 -8 90 -23 48z"/>
<path d="M8900 111 c0 -34 26 -111 37 -111 19 0 16 35 -7 80 -20 39 -30 49
-30 31z"/>
<path d="M3480 86 c0 -52 12 -86 31 -86 23 0 23 4 3 63 -17 50 -34 62 -34 23z"/>
<path d="M3600 87 c0 -37 20 -87 36 -87 18 0 18 19 -1 63 -18 45 -35 56 -35
24z"/>
<path d="M2470 74 c-15 -38 -12 -74 5 -74 11 0 15 12 15 50 0 56 -6 63 -20 24z"/>
<path d="M7878 58 c-22 -44 -23 -58 -3 -58 20 0 27 20 23 62 l-3 33 -17 -37z"/>
<path d="M9007 71 c3 -11 12 -26 20 -33 12 -10 14 -7 11 17 -2 18 -10 31 -20
33 -12 2 -15 -2 -11 -17z"/>
<path d="M6230 66 c0 -8 4 -17 9 -20 5 -4 7 3 4 14 -6 23 -13 26 -13 6z"/>
<path d="M6340 71 c0 -6 5 -13 10 -16 6 -3 10 1 10 9 0 9 -4 16 -10 16 -5 0
-10 -4 -10 -9z"/>
<path d="M6385 71 c-3 -5 -1 -12 5 -16 6 -4 8 -11 5 -16 -14 -21 4 -7 19 16
16 24 15 25 -3 25 -11 0 -22 -4 -26 -9z"/>
<path d="M6446 56 c3 -9 11 -16 16 -16 13 0 5 23 -10 28 -7 2 -10 -2 -6 -12z"/>
<path d="M2522 40 c0 -14 2 -19 5 -12 2 6 2 18 0 25 -3 6 -5 1 -5 -13z"/>
<path d="M7970 41 c-14 -27 -13 -41 5 -41 10 0 15 10 15 30 0 35 -5 38 -20 11z"/>
<path d="M8092 40 c-16 -26 -15 -40 3 -40 10 0 15 10 15 30 0 35 -1 36 -18 10z"/>
<path d="M8825 48 c-8 -21 0 -48 15 -48 12 0 12 17 0 45 -7 18 -8 19 -15 3z"/>
<path d="M8696 34 c-10 -26 -7 -34 14 -34 23 0 27 22 6 39 -11 9 -15 8 -20 -5z"/>
</g>
</svg>
